<svg width="20" height="20" viewBox="0 0 20 20" fill="none" xmlns="http://www.w3.org/2000/svg">
<path d="M10.5996 3.00001C11.0031 3.00001 11.3667 2.99891 11.667 3.02344C11.9788 3.04894 12.3101 3.10706 12.6348 3.27247C13.1052 3.51214 13.4879 3.89487 13.7275 4.36524C13.8929 4.68994 13.9511 5.02123 13.9766 5.33302C13.9845 5.42959 14.0616 5.50608 14.1585 5.50867C14.3617 5.51411 14.55 5.52293 14.7236 5.53712C15.2023 5.57624 15.6571 5.66183 16.0889 5.88184C16.7474 6.21739 17.2826 6.75263 17.6182 7.41114C17.8382 7.84294 17.9238 8.29772 17.9629 8.77637C18.0011 9.24342 18 9.81644 18 10.5V12C18 12.6836 18.0011 13.2566 17.9629 13.7236C17.9238 14.2023 17.8382 14.6571 17.6182 15.0889C17.2826 15.7474 16.7474 16.2826 16.0889 16.6182C15.6571 16.8382 15.2023 16.9238 14.7236 16.9629C14.2566 17.0011 13.6836 17 13 17H7C6.31644 17 5.74342 17.0011 5.27637 16.9629C4.79772 16.9238 4.34294 16.8382 3.91114 16.6182C3.25262 16.2826 2.71739 15.7474 2.38184 15.0889C2.16182 14.6571 2.07623 14.2023 2.03711 13.7236C1.99895 13.2566 2 12.6836 2 12V10.5C2 9.81644 1.99895 9.24342 2.03711 8.77637C2.07623 8.29772 2.16182 7.84294 2.38184 7.41114C2.71739 6.75263 3.25262 6.21739 3.91114 5.88184C4.34294 5.66183 4.79772 5.57624 5.27637 5.53712C5.44974 5.52295 5.63771 5.51413 5.84052 5.50868C5.93741 5.50608 6.01555 5.42962 6.02344 5.33302C6.04894 5.02123 6.10706 4.68994 6.27246 4.36524C6.51215 3.89487 6.89485 3.51214 7.36524 3.27247C7.68996 3.10706 8.02121 3.04894 8.33301 3.02344C8.6333 2.99891 8.99686 3.00001 9.40039 3.00001H10.5996Z" stroke="#191815" stroke-width="2"/>
<path d="M12.75 10.75C12.75 12.2688 11.5188 13.5 10 13.5C8.48122 13.5 7.25 12.2688 7.25 10.75C7.25 9.23122 8.48122 8 10 8C11.5188 8 12.75 9.23122 12.75 10.75Z" stroke="#191815" stroke-width="2.2"/>
</svg>
