<svg width="20" height="20" viewBox="0 0 20 20" fill="none" xmlns="http://www.w3.org/2000/svg">
<path d="M14.1666 14.9998C14.6086 14.9998 15.0325 15.1754 15.3451 15.488C15.6577 15.8006 15.8333 16.2245 15.8333 16.6665C15.8333 17.1085 15.6577 17.5325 15.3451 17.845C15.0325 18.1576 14.6086 18.3332 14.1666 18.3332C13.7246 18.3332 13.3006 18.1576 12.9881 17.845C12.6755 17.5325 12.4999 17.1085 12.4999 16.6665C12.4999 15.7415 13.2416 14.9998 14.1666 14.9998ZM0.833252 1.6665H3.55825L4.34159 3.33317H16.6666C16.8876 3.33317 17.0996 3.42097 17.2558 3.57725C17.4121 3.73353 17.4999 3.94549 17.4999 4.1665C17.4999 4.30817 17.4583 4.44984 17.3999 4.58317L14.4166 9.97484C14.1333 10.4832 13.5833 10.8332 12.9583 10.8332H6.74992L5.99992 12.1915L5.97492 12.2915C5.97492 12.3468 5.99687 12.3997 6.03594 12.4388C6.07501 12.4779 6.128 12.4998 6.18325 12.4998H15.8333V14.1665H5.83325C5.39122 14.1665 4.9673 13.9909 4.65474 13.6783C4.34218 13.3658 4.16659 12.9419 4.16659 12.4998C4.16659 12.2082 4.24159 11.9332 4.36659 11.6998L5.49992 9.65817L2.49992 3.33317H0.833252V1.6665ZM5.83325 14.9998C6.27528 14.9998 6.6992 15.1754 7.01176 15.488C7.32432 15.8006 7.49992 16.2245 7.49992 16.6665C7.49992 17.1085 7.32432 17.5325 7.01176 17.845C6.6992 18.1576 6.27528 18.3332 5.83325 18.3332C5.39122 18.3332 4.9673 18.1576 4.65474 17.845C4.34218 17.5325 4.16659 17.1085 4.16659 16.6665C4.16659 15.7415 4.90825 14.9998 5.83325 14.9998ZM13.3333 9.1665L15.6499 4.99984H5.11659L7.08325 9.1665H13.3333Z" fill="#191815"/>
</svg>
