<svg width="24" height="24" viewBox="0 0 24 24" fill="none" xmlns="http://www.w3.org/2000/svg">
<path d="M8.10216 2.79094C6.58772 3.43194 5.25474 4.43654 4.22129 5.71576C3.18784 6.99498 2.48582 8.50932 2.17742 10.1247C1.86902 11.74 1.96375 13.4064 2.45323 14.9764C2.9427 16.5464 3.81181 17.9714 4.98357 19.1253C6.15533 20.2791 7.59357 21.1262 9.1709 21.5915C10.7482 22.0567 12.4159 22.1258 14.0263 21.7925C15.6367 21.4593 17.1401 20.7341 18.4032 19.681C19.6664 18.628 20.6504 17.2797 21.268 15.7556" stroke="#91908E" stroke-width="2" stroke-linecap="round" stroke-linejoin="round" stroke-dasharray="4 17"/>
<path d="M19.9886 3.84742C21.08 4.91382 21.9113 6.21425 22.4214 7.64774C22.5139 7.9079 22.3628 8.18722 22.0983 8.26667L13.8659 10.7399C13.4894 10.853 13.1356 10.5073 13.24 10.1283L15.5216 1.84077C15.5949 1.57454 15.8707 1.41691 16.1329 1.50342C17.5778 1.98009 18.8972 2.78101 19.9886 3.84742Z" stroke="#91908E" stroke-width="2" stroke-linecap="round" stroke-linejoin="round"/>
</svg>
