<svg width="20" height="20" viewBox="0 0 20 20" fill="none" xmlns="http://www.w3.org/2000/svg">
<path d="M5.25 17.5H4.25C4.05109 17.5 3.86032 17.421 3.71967 17.2803C3.57902 17.1397 3.5 16.9489 3.5 16.75V12.25C3.5 12.0511 3.57902 11.8603 3.71967 11.7197C3.86032 11.579 4.05109 11.5 4.25 11.5H5.25C5.44891 11.5 5.63968 11.579 5.78033 11.7197C5.92098 11.8603 6 12.0511 6 12.25V16.75C6 16.9489 5.92098 17.1397 5.78033 17.2803C5.63968 17.421 5.44891 17.5 5.25 17.5ZM12.25 17.5H11.25C11.0511 17.5 10.8603 17.421 10.7197 17.2803C10.579 17.1397 10.5 16.9489 10.5 16.75V9.25C10.5 9.05109 10.579 8.86032 10.7197 8.71967C10.8603 8.57902 11.0511 8.5 11.25 8.5H12.25C12.4489 8.5 12.6397 8.57902 12.7803 8.71967C12.921 8.86032 13 9.05109 13 9.25V16.75C13 16.9489 12.921 17.1397 12.7803 17.2803C12.6397 17.421 12.4489 17.5 12.25 17.5ZM15.75 17.5H14.75C14.5511 17.5 14.3603 17.421 14.2197 17.2803C14.079 17.1397 14 16.9489 14 16.75V5.75C14 5.55109 14.079 5.36032 14.2197 5.21967C14.3603 5.07902 14.5511 5 14.75 5H15.75C15.9489 5 16.1397 5.07902 16.2803 5.21967C16.421 5.36032 16.5 5.55109 16.5 5.75V16.75C16.5 16.9489 16.421 17.1397 16.2803 17.2803C16.1397 17.421 15.9489 17.5 15.75 17.5ZM8.75 17.5H7.75C7.55109 17.5 7.36032 17.421 7.21967 17.2803C7.07902 17.1397 7 16.9489 7 16.75V3.25C7 3.05109 7.07902 2.86032 7.21967 2.71967C7.36032 2.57902 7.55109 2.5 7.75 2.5H8.75C8.94891 2.5 9.13968 2.57902 9.28033 2.71967C9.42098 2.86032 9.5 3.05109 9.5 3.25V16.75C9.5 16.9489 9.42098 17.1397 9.28033 17.2803C9.13968 17.421 8.94891 17.5 8.75 17.5Z" fill="#191815"/>
</svg>
