<svg width="24" height="24" viewBox="0 0 24 24" fill="none" xmlns="http://www.w3.org/2000/svg">
<g clip-path="url(#clip0_131_11)">
<mask id="mask0_131_11" style="mask-type:luminance" maskUnits="userSpaceOnUse" x="0" y="0" width="24" height="24">
<path d="M24 0H0V24H24V0Z" fill="white"/>
</mask>
<g mask="url(#mask0_131_11)">
<path d="M74.7425 6.30897H85.3715V5.62325H74.7425V6.30897ZM12.5485 11.3146H21.1199C21.2571 11.3146 21.3256 11.3146 21.3256 11.1775V10.9032C21.3256 10.8347 21.3256 10.7661 21.1885 10.7661C17.1427 9.66897 13.9885 6.58323 12.9599 2.53753L12.6856 2.40039H12.4799C12.4113 2.40039 12.3427 2.46896 12.3427 2.60611V11.1775C12.3427 11.2461 12.3427 11.3146 12.4799 11.3146H12.5485ZM12.5485 21.3261H12.8227L12.9599 21.189C14.0571 17.1432 17.1427 13.989 21.1885 12.9604L21.3256 12.7546V12.549C21.3256 12.4804 21.2571 12.3432 21.1199 12.3432H12.5485L12.4113 12.549V21.1204C12.4113 21.2575 12.4113 21.3261 12.5485 21.3261ZM10.9713 21.3261H11.1771C11.2456 21.3261 11.3142 21.2575 11.3142 21.1204V12.549C11.3142 12.4804 11.3142 12.3432 11.1771 12.3432H2.60562C2.46848 12.3432 2.3999 12.4804 2.3999 12.549V12.8232C2.3999 12.8918 2.3999 12.9604 2.53704 12.9604C6.58274 13.989 9.73706 17.1432 10.7656 21.189L10.9713 21.3261ZM2.60562 11.3146H11.1771C11.2456 11.3146 11.3142 11.3146 11.3142 11.1775V2.60611C11.3142 2.46896 11.3142 2.40039 11.1771 2.40039H10.9027C10.8342 2.40039 10.7656 2.40039 10.7656 2.53753C9.66848 6.51465 6.51416 9.73755 2.53704 10.7661L2.3999 10.9718V11.1775C2.3999 11.2461 2.46848 11.3146 2.60562 11.3146Z" fill="black"/>
</g>
</g>
<defs>
<clipPath id="clip0_131_11">
<rect width="24" height="24" fill="white"/>
</clipPath>
</defs>
</svg>
