<svg width="106" height="32" viewBox="0 0 106 32" fill="none" xmlns="http://www.w3.org/2000/svg">
<path fill-rule="evenodd" clip-rule="evenodd" d="M62.4511 22.7968H64.8566L64.0054 8.98242H62.0044V9.04335L58.3854 17.5885C58.2291 17.9141 58.0765 18.2601 57.9275 18.6263C57.7786 18.9926 57.6332 19.3519 57.4914 19.7044C57.3351 19.3383 57.1824 18.9721 57.0335 18.6059C56.8846 18.2396 56.7392 17.9005 56.5973 17.5885L52.9572 8.98264H50.9561L50.1045 22.7971H52.5104L52.7229 17.548C52.7229 17.4124 52.7262 17.2224 52.734 16.9783C52.7409 16.7342 52.7514 16.4596 52.7654 16.1543C52.7793 15.8491 52.7901 15.5201 52.7976 15.1674C52.8045 14.8149 52.8081 14.4622 52.8082 14.1094C52.9359 14.4487 53.0707 14.7946 53.2126 15.1472C53.3545 15.4997 53.4892 15.832 53.617 16.1441C53.7447 16.4563 53.8618 16.7411 53.9683 16.9986C54.0748 17.2562 54.1635 17.4596 54.2343 17.6089L56.6185 22.7971H58.4278L60.7908 17.548C60.8475 17.4124 60.9291 17.2226 61.0356 16.9783C61.1421 16.7341 61.252 16.4594 61.3653 16.1543C61.4787 15.8491 61.6029 15.527 61.7379 15.1879C61.8728 14.8488 62.0042 14.5097 62.1321 14.1706C62.1459 14.8352 62.16 15.4862 62.1745 16.1236C62.1883 16.7614 62.2095 17.2565 62.2381 17.6089L62.4511 22.7968ZM68.5004 12.8224C67.9058 13.0898 67.3854 13.4802 66.9793 13.9634C66.5754 14.4458 66.2741 15.0163 66.0752 15.6751C65.8707 16.3757 65.7705 17.0989 65.7773 17.8246C65.7773 18.6264 65.866 19.3464 66.0434 19.9845C66.2204 20.6232 66.5004 21.1666 66.8834 21.6147C67.2693 22.065 67.7704 22.4187 68.3414 22.6437C68.9297 22.8812 69.6284 23 70.4374 23.0003C71.2457 23.0003 71.955 22.861 72.5653 22.5825C73.1601 22.3154 73.6806 21.9249 74.0864 21.4414C74.4907 20.9594 74.7921 20.3889 74.9905 19.7299C75.1943 19.036 75.2947 18.3196 75.2888 17.6005C75.2888 15.9841 74.92 14.714 74.1823 13.7903C73.4445 12.8665 72.26 12.4046 70.6288 12.4045C69.82 12.4045 69.1106 12.5438 68.5004 12.8224ZM71.5329 14.4218C71.8321 14.6217 72.0674 14.8928 72.2139 15.2064C72.3888 15.5794 72.5034 15.9741 72.5542 16.3781C72.6199 16.8511 72.6519 17.3276 72.6501 17.8045C72.652 18.2607 72.6237 18.7166 72.5653 19.1697C72.5203 19.5483 72.4162 19.9188 72.2563 20.2697C72.1256 20.5612 71.9125 20.8146 71.6394 21.0034C71.3766 21.18 71.0468 21.2683 70.65 21.2683C70.1958 21.2683 69.8234 21.1732 69.5328 20.983C69.2334 20.7834 68.998 20.5122 68.8518 20.1985C68.6775 19.8289 68.5629 19.4375 68.5115 19.037C68.4455 18.5675 68.4135 18.0945 68.4156 17.621C68.4137 17.1648 68.442 16.7089 68.5004 16.2559C68.5465 15.8739 68.6505 15.5 68.8094 15.145C68.9583 14.826 69.1604 14.5782 69.4157 14.4016C69.6709 14.225 70.0043 14.1367 70.4157 14.1367C70.8699 14.1366 71.2423 14.2317 71.5329 14.4218ZM82.8546 17.6208C82.8877 18.1125 82.8265 18.6058 82.6739 19.0778C82.5448 19.481 82.3474 19.8627 82.0892 20.2086C81.8688 20.503 81.5822 20.7497 81.2491 20.9318C80.9301 21.1018 80.6145 21.1868 80.3026 21.1865C79.806 21.1865 79.4516 21.0235 79.2393 20.6975C79.0271 20.3714 78.9207 19.9232 78.9203 19.3528V12.6491H76.4747V19.4139C76.4747 20.6772 76.7724 21.5942 77.3678 22.1648C77.8921 22.6675 78.6293 22.9188 79.5796 22.9187C80.3374 22.9206 81.0836 22.7454 81.7489 22.4092C82.429 22.0699 82.9606 21.5061 83.3438 20.718C83.3906 21.0492 83.4798 21.3741 83.6094 21.6859C83.7108 21.9266 83.8279 22.1614 83.9603 22.3889C84.0828 22.5957 84.2329 22.7874 84.407 22.9595L86.1808 22.0443C86.0166 21.8454 85.9664 21.6756 85.8105 21.2682C85.6833 20.9287 85.5663 20.4838 85.4597 19.9335C85.3536 19.3835 85.3004 18.7008 85.3001 17.8856V12.6492H82.8546V17.6208ZM89.3308 12.6286C88.912 12.7666 88.5256 12.9776 88.1925 13.2503C87.8793 13.5078 87.623 13.8191 87.4377 14.167C87.2549 14.5054 87.16 14.8787 87.1606 15.2571C87.1606 16.0586 87.3982 16.7107 87.8734 17.2133C88.3486 17.7158 89.1323 18.1641 90.2244 18.5581C90.7353 18.7486 91.1218 18.9864 91.384 19.2716C91.6376 19.5352 91.7778 19.8761 91.7778 20.2293C91.7778 20.5418 91.6607 20.793 91.4264 20.983C91.1922 21.1731 90.827 21.2681 90.3309 21.2683C90.0224 21.2643 89.7169 21.2126 89.4268 21.1154C89.1192 21.0181 88.8174 20.9059 88.5226 20.7792C88.1961 20.63 87.8699 20.467 87.5437 20.2903L86.7567 22.0223C87.1432 22.2063 87.5408 22.3695 87.9476 22.5111C88.3445 22.6453 88.7496 22.7576 89.1607 22.8475C89.6134 22.9492 90.0776 23.0006 90.5435 23.0003C91.1392 23.0003 91.6676 22.9154 92.1286 22.7455C92.563 22.5912 92.9605 22.3593 93.2984 22.063C93.6106 21.7873 93.8571 21.454 94.0218 21.0846C94.1825 20.7297 94.2657 20.3489 94.2666 19.964C94.2666 19.5295 94.2029 19.1525 94.0753 18.8331C93.9508 18.5189 93.759 18.2314 93.5114 17.9877C93.2474 17.732 92.9424 17.5155 92.6072 17.3458C92.2225 17.1492 91.8245 16.9757 91.4158 16.8261C90.2387 16.3915 89.6501 15.7939 89.6499 15.0331C89.6499 14.7344 89.7669 14.5102 90.0008 14.3606C90.2493 14.2072 90.5429 14.1289 90.8413 14.1365C91.1291 14.139 91.4153 14.1767 91.6925 14.2485C91.9903 14.3233 92.2597 14.4014 92.5007 14.4829C92.7835 14.5776 93.0606 14.6865 93.3307 14.809L94.0753 13.1992C93.7632 13.0635 93.4227 12.9345 93.054 12.8122C92.7071 12.694 92.3517 12.5986 91.9903 12.5268C91.5851 12.4444 91.1714 12.4034 90.7565 12.4043C90.2707 12.4004 89.788 12.4764 89.3308 12.6288V12.6286ZM95.583 20.0184C95.7531 20.6306 96.0224 21.1545 96.3908 21.59C96.7672 22.0316 97.2568 22.379 97.8151 22.6004C98.3956 22.8384 99.0969 22.9574 99.919 22.9575C100.433 22.9597 100.946 22.9119 101.449 22.8148C101.882 22.7322 102.308 22.623 102.725 22.4881C103.133 22.3588 103.531 22.2019 103.915 22.0186L103.277 20.5488C102.937 20.6851 102.59 20.8076 102.235 20.9163C101.916 21.0173 101.589 21.0991 101.258 21.1611C100.929 21.2267 100.595 21.2608 100.259 21.2632C99.848 21.2632 99.5009 21.2019 99.2177 21.0794C98.9496 20.9679 98.7131 20.8002 98.527 20.5895C98.3432 20.3744 98.2061 20.1284 98.1231 19.865C98.0283 19.575 97.9607 19.2779 97.9211 18.977C98.8562 18.9635 99.6992 18.858 100.45 18.6604C101.201 18.4635 101.839 18.1982 102.363 17.8645C102.887 17.5309 103.291 17.143 103.575 16.7008C103.852 16.2796 103.999 15.796 104 15.3026C104.003 14.9138 103.935 14.5272 103.798 14.1597C103.668 13.8129 103.453 13.4986 103.171 13.2411C102.887 12.9825 102.522 12.7783 102.076 12.6286C101.63 12.4788 101.088 12.4039 100.45 12.4038C99.7583 12.3985 99.0721 12.5199 98.4311 12.7612C97.8101 12.9977 97.2545 13.3605 96.8053 13.8229C96.3447 14.2922 95.9834 14.874 95.7213 15.5681C95.4593 16.2623 95.3282 17.0651 95.328 17.9764C95.328 18.7254 95.413 19.4061 95.583 20.0185V20.0184ZM101.194 14.364C101.435 14.5957 101.555 14.9086 101.555 15.3029C101.552 15.5592 101.483 15.8112 101.354 16.0378C101.219 16.2827 101.003 16.5107 100.706 16.7217C100.408 16.9327 100.026 17.1095 99.5579 17.2522C99.0899 17.3951 98.5231 17.4735 97.8575 17.4872C97.8721 17.0731 97.9181 16.6605 97.9954 16.2524C98.0645 15.8632 98.1934 15.4851 98.378 15.1297C98.543 14.8096 98.7913 14.5325 99.1006 14.3235C99.4053 14.1192 99.7914 14.0171 100.259 14.0171C100.642 14.0172 100.954 14.1329 101.194 14.3642V14.364Z" fill="black"/>
<path fill-rule="evenodd" clip-rule="evenodd" d="M1 22.7824H4.52076V16.9314H4.88363C5.24332 16.9274 5.58808 17.0644 5.83298 17.3086C6.09625 17.5602 6.36306 17.934 6.6334 18.43C6.90313 18.9262 7.19469 19.5377 7.50806 20.2645C7.82067 20.9918 8.20474 21.8311 8.66029 22.7824H12.4369C12.0667 21.9535 11.7289 21.1924 11.4235 20.4991C11.1174 19.8058 10.815 19.1908 10.5166 18.6541C10.2526 18.1682 9.93821 17.7074 9.57782 17.278C9.26552 16.9098 8.88198 16.5988 8.44681 16.3607C9.20067 16.048 9.79806 15.6097 10.239 15.0457C10.6799 14.4818 10.9006 13.7649 10.9011 12.8951C10.9011 11.5903 10.4457 10.6049 9.53494 9.93886C8.62478 9.27313 7.25924 8.94023 5.4383 8.94014C5.19624 8.94014 4.85489 8.9435 4.41425 8.95022C3.97301 8.9572 3.51777 8.96059 3.04855 8.96039C2.57933 8.96019 2.15259 8.96358 1.76833 8.97056C1.38411 8.97774 1.12799 8.98114 1 8.98077V22.7824ZM4.52076 11.1418H5.31012C5.66561 11.1418 5.96792 11.1927 6.21705 11.2945C6.44637 11.383 6.64815 11.5232 6.804 11.7025C6.94915 11.8781 7.0544 12.0792 7.11338 12.2935C7.179 12.5299 7.21124 12.7732 7.20929 13.0172C7.20929 13.6426 7.035 14.1013 6.68643 14.3934C6.33786 14.6855 5.91474 14.8316 5.41709 14.8315H4.52076V11.1418ZM12.2447 17.9428C12.2447 18.6898 12.3335 19.3722 12.5112 19.9901C12.6882 20.608 12.9721 21.1342 13.3628 21.5684C13.7532 22.0033 14.2573 22.3428 14.8751 22.5869C15.4929 22.8311 16.2351 22.9534 17.1016 22.9537C17.6415 22.9561 18.1803 22.9084 18.7099 22.8112C19.214 22.7162 19.6578 22.6144 20.0414 22.5056C20.4723 22.3787 20.8923 22.2221 21.2979 22.0372L20.6593 19.9188C20.3185 20.0409 19.9706 20.1495 19.6154 20.2446C19.3172 20.3262 18.9905 20.4009 18.6352 20.4687C18.3061 20.5342 17.9707 20.5684 17.6342 20.5707C17.0943 20.5707 16.693 20.445 16.4303 20.1938C16.1677 19.9425 15.9866 19.6132 15.8872 19.2058C16.7392 19.138 17.5026 18.9955 18.1773 18.7781C18.8519 18.5612 19.427 18.2864 19.9027 17.9535C20.3533 17.6472 20.7276 17.2547 21 16.8025C21.2526 16.3785 21.3844 15.9018 21.3832 15.4175C21.387 15.0052 21.3151 14.5954 21.1706 14.2055C21.0322 13.8379 20.8064 13.5039 20.5099 13.228C20.2117 12.9496 19.8283 12.7323 19.3595 12.5759C18.8911 12.4201 18.323 12.3421 17.6554 12.3419C16.9264 12.3352 16.203 12.4597 15.5252 12.7085C14.8785 12.9487 14.2941 13.3132 13.8105 13.7779C13.3204 14.2462 12.9369 14.8301 12.6601 15.5296C12.3833 16.2291 12.2448 17.0335 12.2447 17.9429V17.9428ZM17.2293 14.6435C17.4527 14.6363 17.6678 14.7223 17.8154 14.8778C17.9643 15.0339 18.0388 15.2409 18.039 15.4988C18.0343 15.6815 17.9909 15.8615 17.9113 16.0286C17.8177 16.2293 17.6798 16.4096 17.5065 16.558C17.2984 16.7344 17.0563 16.8727 16.7927 16.9655C16.5013 17.0743 16.1428 17.1354 15.717 17.1488C15.732 16.855 15.7674 16.5625 15.8231 16.2729C15.874 15.9931 15.9599 15.7197 16.079 15.4582C16.1793 15.2306 16.3362 15.0282 16.5368 14.8675C16.7307 14.7174 16.9768 14.6378 17.2293 14.6435V14.6435ZM22.5926 22.2829C22.6488 22.3101 22.8191 22.3542 23.1034 22.415C23.387 22.476 23.7311 22.5405 24.1358 22.6084C24.5405 22.6762 24.9806 22.7372 25.4563 22.7914C25.9116 22.8443 26.37 22.8714 26.8289 22.8726C27.6238 22.8726 28.3477 22.7369 29.0006 22.4655C29.6408 22.2032 30.214 21.8184 30.6826 21.3364C31.1628 20.8371 31.535 20.2569 31.779 19.6274C32.0472 18.9394 32.1807 18.2125 32.1732 17.481C32.1732 16.7078 32.0916 16.0093 31.9284 15.3854C31.7647 14.7616 31.5162 14.2293 31.1828 13.7885C30.8603 13.3567 30.4292 13.004 29.9269 12.7609C29.4229 12.5168 28.8374 12.3947 28.1702 12.3946C27.2476 12.3946 26.5095 12.7336 25.9561 13.4117V8.00021L22.5926 8.54924V22.2829ZM27.5108 14.7546C27.7658 14.7546 27.9644 14.836 28.1066 14.9989C28.2479 15.1616 28.358 15.3786 28.4367 15.6499C28.5199 15.9562 28.5663 16.2701 28.575 16.5859C28.5888 16.9385 28.5961 17.3047 28.5967 17.6844C28.5987 18.0623 28.57 18.4397 28.5109 18.8136C28.4657 19.124 28.3688 19.4259 28.2237 19.7088C28.1012 19.9459 27.9139 20.1493 27.6805 20.2988C27.4537 20.4412 27.1698 20.5124 26.8289 20.5124C26.6678 20.5104 26.5073 20.4933 26.3499 20.4614C26.2167 20.4383 26.0852 20.4078 25.9561 20.37V18.1931C25.9552 17.7568 25.9943 17.3212 26.0732 16.8911C26.138 16.5155 26.2451 16.1473 26.3927 15.7924C26.5274 15.4806 26.6906 15.2297 26.8824 15.0396C27.0742 14.8496 27.2837 14.7547 27.5108 14.7547V14.7546ZM33.0248 17.9284C33.0248 18.6747 33.1134 19.3563 33.2904 19.9733C33.4679 20.5905 33.7519 21.1161 34.1425 21.5499C34.533 21.9837 35.037 22.3228 35.6543 22.5672C36.2713 22.8114 37.0128 22.9335 37.879 22.9335C38.4186 22.9359 38.957 22.8882 39.4863 22.7911C39.9898 22.6962 40.4334 22.5945 40.817 22.4858C41.2476 22.359 41.6674 22.2027 42.073 22.018L41.4344 19.902C41.0936 20.024 40.7458 20.1325 40.391 20.2275C40.0931 20.3089 39.7667 20.3835 39.4116 20.4513C39.0827 20.5167 38.7475 20.5509 38.4111 20.5532C37.8716 20.5532 37.4707 20.4277 37.2082 20.1767C36.9457 19.9258 36.7646 19.5968 36.665 19.1898C37.5171 19.1222 38.2802 18.9798 38.9542 18.7625C39.6279 18.5459 40.2027 18.2713 40.6787 17.9387C41.1288 17.6327 41.5028 17.2406 41.7751 16.789C42.0276 16.3655 42.1595 15.8894 42.1583 15.4055C42.1622 14.9937 42.0901 14.5843 41.9452 14.195C41.8071 13.8278 41.5816 13.4941 41.2854 13.2186C40.9871 12.9406 40.604 12.7235 40.136 12.5673C39.668 12.4112 39.1001 12.3332 38.4323 12.3335C37.7038 12.3268 36.9809 12.4512 36.3035 12.6997C35.6572 12.9395 35.0731 13.3036 34.5897 13.7678C34.0996 14.2357 33.7163 14.819 33.4398 15.5177C33.1633 16.2164 33.025 17.02 33.0248 17.9282V17.9284ZM38.0063 14.6328C38.2294 14.6256 38.4443 14.7114 38.5918 14.8668C38.7412 15.0227 38.8158 15.2295 38.8155 15.4871C38.8109 15.6696 38.7675 15.8494 38.6877 16.0163C38.5946 16.217 38.4568 16.3971 38.2834 16.545C38.0756 16.7213 37.8335 16.8595 37.5701 16.9521C37.2792 17.0608 36.9208 17.1219 36.4949 17.1352C36.51 16.8418 36.5456 16.5496 36.6014 16.2604C36.652 15.9808 36.7377 15.7077 36.8568 15.4466C36.9572 15.2193 37.114 15.0171 37.3147 14.8566C37.5083 14.7067 37.7541 14.6272 38.0063 14.6328ZM46.1498 22.8319C46.7205 22.8382 47.2895 22.7732 47.8414 22.6387C48.3445 22.51 48.528 22.4409 48.7405 22.3458L48.9056 20.2193C48.7498 20.2464 48.2666 20.3432 48.0752 20.3701C47.9028 20.3958 47.7284 20.4094 47.5537 20.4107C47.2273 20.4107 47.004 20.3463 46.8838 20.2175C46.763 20.0888 46.7026 19.8616 46.7026 19.536V8L43.3409 8.54903V20.2278C43.3374 20.5725 43.3912 20.9156 43.5004 21.2451C43.6029 21.5514 43.7773 21.8328 44.0113 22.069C44.2543 22.3126 44.5521 22.5037 44.8837 22.6287C45.2313 22.7641 45.6533 22.8319 46.1498 22.832V22.8319Z" fill="black"/>
</svg>
