<svg width="101" height="32" viewBox="0 0 101 32" fill="none" xmlns="http://www.w3.org/2000/svg">
<path d="M94.8255 18.8675L92.3311 21.3428L94.8255 23.8181L97.32 21.3428L94.8255 18.8675Z" fill="black"/>
<path d="M25.9245 15.2841V24.3024H21.2294V15.6762C21.2294 15.0304 20.8575 14.6383 19.6953 14.6383C18.9283 14.6383 18.3007 15.0535 17.6732 15.584V24.3025H12.9315V15.6762C12.9315 15.0304 12.5829 14.6383 11.4207 14.6383C10.7002 14.6383 10.0494 15.0074 9.37532 15.5609V24.3025H4.68018V12.4933H9.37537V14.6614C10.3748 13.3467 11.7926 12.2627 14.0008 12.2627C15.9765 12.2627 17.3013 13.093 17.6035 14.9382C18.5332 13.5543 20.0673 12.2627 22.2522 12.2627C24.5997 12.2627 25.9245 13.3006 25.9245 15.2841Z" fill="black"/>
<path d="M27.5513 18.6286C27.5513 14.9382 30.5032 12.2627 34.7102 12.2627C38.9172 12.2627 41.8459 14.5692 41.8459 18.1673C41.8459 21.8576 38.9172 24.5331 34.7102 24.5331C30.5032 24.5331 27.5513 22.2266 27.5513 18.6286ZM36.8253 19.3205C36.8253 15.6071 36.221 13.1853 34.6172 13.1853C33.0599 13.1853 32.5718 14.7767 32.5718 17.4753C32.5718 21.1887 33.1761 23.6105 34.8032 23.6105C36.3372 23.6105 36.8253 22.0191 36.8253 19.3205Z" fill="black"/>
<path d="M42.7749 22.5265L44.7971 20.6814C46.3079 22.9417 48.1209 23.403 49.1901 23.3569C50.0733 23.3107 50.8636 22.9186 50.8636 22.0652C50.8636 21.0503 49.6782 20.6813 47.4701 20.1508C44.5414 19.3666 43.1003 18.3518 43.1003 16.2068C43.1003 13.6466 45.3084 12.2627 48.7019 12.2627C51.6771 12.2627 53.6992 13.3929 53.6992 14.7306C53.6992 15.3303 53.2808 15.9069 52.2116 15.9069C51.2587 15.9069 51.003 15.4687 51.003 14.869C51.003 13.8312 50.3987 13.1853 48.7949 13.1853C47.3538 13.1853 46.61 13.7158 46.61 14.5C46.61 15.4688 47.7257 15.7686 49.957 16.3913C52.7462 17.1986 54.3733 18.1212 54.3733 20.4276C54.3733 23.0801 52.1419 24.5331 48.3533 24.5331C46.0522 24.5332 44.216 24.0488 42.7749 22.5265Z" fill="black"/>
<path d="M67.3892 16.0914V24.3025H62.7406V22.342C61.9736 23.4491 60.7649 24.4639 58.8125 24.4639C56.8135 24.4639 55.3027 23.4029 55.3027 21.5116C55.3027 19.6203 56.86 18.8131 58.5103 18.3287L62.7406 17.0602V14.8229C62.7406 13.808 62.3919 13.1161 61.4622 13.1161C60.4163 13.1161 60.0211 13.9695 60.0211 15.0766C60.0211 16.0684 59.0914 16.7142 57.8827 16.7142C56.6741 16.7142 56.1627 16.0683 56.1627 15.1919C56.1627 13.3006 58.5568 12.2627 61.8806 12.2627C65.2509 12.2627 67.3892 13.2314 67.3892 16.0914ZM62.7406 21.7423V17.9827L61.3227 18.444C60.4395 18.7208 59.8352 19.159 59.8352 20.4045C59.8352 21.5116 60.3233 22.342 61.3925 22.342C61.6474 22.344 61.8998 22.2915 62.1324 22.1881C62.3651 22.0846 62.5725 21.9325 62.7406 21.7423Z" fill="black"/>
<path d="M69.8291 8.82641C69.8291 7.41952 71.0145 6.42773 72.3859 6.42773C73.7107 6.42773 74.9426 7.41952 74.9426 8.82641C74.9426 10.2564 73.7107 11.2713 72.3859 11.2713C71.0145 11.2713 69.8291 10.2565 69.8291 8.82641ZM70.0383 24.3028V12.4937H74.7335V24.3029L70.0383 24.3028Z" fill="black"/>
<path d="M86.7499 24.3027L83.2634 19.5283C83.0542 19.6667 82.8682 19.8051 82.6591 19.9665V24.3027H77.9639V6.6582H82.6591V18.6519C84.5462 16.9652 85.9971 14.8531 86.8893 12.4936H90.6547C89.6785 14.085 88.098 15.6765 86.192 17.268L91.631 24.3027H86.7499Z" fill="black"/>
</svg>
