<svg width="57" height="32" viewBox="0 0 57 32" fill="none" xmlns="http://www.w3.org/2000/svg">
<path d="M24.7323 8.5L16.4883 16.5V24.5H24.7323V16.5H32.9762V8.5H24.7323Z" fill="black"/>
<path d="M8.24398 8.5L0 16.5V24.5H8.24398V16.5H16.488V8.5H8.24398Z" fill="black"/>
<path d="M56.9961 24.5H32.9756V16.5H56.9961V24.5ZM35.5713 22.0557H36.332V20.9932H37.4697V20.2549H36.332V19.6572H37.748V18.9189H35.5713V22.0557ZM38.2266 22.0537H38.9873V18.917H38.2266V22.0537ZM39.5127 22.0537H40.2725V20.3115H40.3506L41.6045 22.0537H42.3643V18.917H41.6074V20.6602H41.5303L40.2725 18.917H39.5127V22.0537ZM42.7451 22.0537H43.5615L43.7061 21.5693H44.8506L44.9951 22.0537H45.8115L44.8574 18.917H43.6992L42.7451 22.0537ZM46.1992 22.0537H46.96V20.3115H47.0371L48.291 22.0537H49.0518V18.917H48.2949V20.6602H48.2168L46.96 18.917H46.1992V22.0537ZM50.9639 18.917C49.8794 18.9171 49.4815 19.7029 49.4814 20.4854C49.4814 21.2679 49.8793 22.0536 50.9639 22.0537C51.8969 22.0537 52.3477 21.5041 52.376 20.8584H51.6152C51.5342 21.2203 51.3722 21.3164 50.9639 21.3164C50.5167 21.3164 50.2422 21.2268 50.2422 20.4854C50.2422 19.7441 50.5168 19.6553 50.9639 19.6553C51.3724 19.6553 51.5342 19.7545 51.6152 20.1133H52.376C52.3478 19.4674 51.8971 18.917 50.9639 18.917ZM52.8057 18.917V22.0537H54.9824V21.3164H53.4717V20.8545H54.6963V20.1162H53.4717V19.6553H54.9824V18.917H52.8057ZM44.6426 20.8311H43.917L44.2412 19.7373H44.3184L44.6426 20.8311Z" fill="black"/>
<path d="M37.5945 11.1455V13.4631H37.032V12.3902H36.9747L36.4512 13.3066H35.946L35.4225 12.3902H35.3653V13.4631H34.8027V11.1455H35.3653L36.17 12.582H36.2273L37.032 11.1455H37.5945Z" fill="black"/>
<path d="M39.0095 11.1436C39.6996 11.1436 40.033 11.55 40.0538 12.0272H39.4913C39.4314 11.7621 39.3116 11.6889 39.0095 11.6889C38.6787 11.6889 38.4756 11.7545 38.4756 12.3024C38.4756 12.8502 38.6787 12.9159 39.0095 12.9159C39.3116 12.9159 39.4314 12.8452 39.4913 12.5776H40.0538C40.033 13.0547 39.6996 13.4612 39.0095 13.4612C38.2074 13.4612 37.9131 12.8805 37.9131 12.3024C37.9131 11.7242 38.2074 11.1436 39.0095 11.1436Z" fill="black"/>
<path d="M41.015 12.2084H41.4707V12.5366H40.4395V12.2084L40.8275 11.9357C41.0358 11.7918 41.1556 11.7136 41.1556 11.5974C41.1556 11.5267 41.1426 11.4712 40.9655 11.4712C40.7884 11.4712 40.778 11.5318 40.778 11.6151H40.4395C40.4395 11.3551 40.5592 11.1455 40.9629 11.1455C41.3666 11.1455 41.4916 11.3576 41.4916 11.5949C41.4916 11.7767 41.4421 11.8979 41.2338 12.0519L41.0124 12.2084H41.015Z" fill="black"/>
</svg>
