<svg width="111" height="32" viewBox="0 0 111 32" fill="none" xmlns="http://www.w3.org/2000/svg">
<g clip-path="url(#clip0_167_59)">
<path d="M22.1251 11.7393H23.5129C23.5431 11.7393 23.5678 11.7649 23.5678 11.7961V16.3116C23.5678 16.3657 23.6323 16.3884 23.6652 16.3472L27.1764 11.7606C27.1874 11.7478 27.2024 11.7393 27.2189 11.7393H28.8894C28.936 11.7393 28.9608 11.7947 28.9319 11.8317L25.0145 16.7637C24.998 16.7851 24.998 16.8149 25.0145 16.8363L29.2422 21.9319C29.2723 21.9689 29.2477 22.0257 29.201 22.0257H27.5319C27.5154 22.0257 27.5003 22.0186 27.4907 22.0058L23.6625 17.3268C23.6295 17.287 23.5663 17.3112 23.5663 17.3637V21.9703C23.5663 22.0016 23.5417 22.0272 23.5114 22.0272H22.1237C22.0935 22.0272 22.0688 22.0016 22.0688 21.9703V11.7976C22.0688 11.7663 22.0935 11.7407 22.1237 11.7407L22.1251 11.7393Z" fill="black" stroke="black" stroke-width="0.5"/>
<path d="M32.5531 11.7377H36.4198C38.0505 11.7377 39.4026 13.0799 39.4341 14.769C39.4794 17.1959 37.2283 17.7788 37.2283 17.7788L39.6221 21.9375C39.6441 21.9745 39.618 22.0228 39.5755 22.0228H38.0477C38.0285 22.0228 38.0107 22.0114 38.0011 21.9944L35.7322 17.9409H34.0534C34.0232 17.9409 33.9985 17.9665 33.9985 17.9978V21.966C33.9985 21.9972 33.9738 22.0228 33.9436 22.0228H32.5559C32.5257 22.0228 32.501 21.9972 32.501 21.966V11.7932C32.501 11.7619 32.5257 11.7363 32.5559 11.7363L32.5531 11.7377ZM36.4391 16.4723C37.227 16.4723 37.9365 15.7372 37.9365 14.84C37.9365 13.9429 37.227 13.2079 36.4391 13.2079H34.0507C34.0205 13.2079 33.9958 13.2334 33.9958 13.2647V16.4168C33.9958 16.4481 34.0205 16.4737 34.0507 16.4737H36.4391V16.4723Z" fill="black" stroke="black" stroke-width="0.5"/>
<path d="M43.4773 11.7393H44.865C44.8952 11.7393 44.9199 11.7649 44.9199 11.7961V21.9689C44.9199 22.0001 44.8952 22.0257 44.865 22.0257H43.4773C43.4471 22.0257 43.4224 22.0001 43.4224 21.9689V11.7961C43.4224 11.7649 43.4471 11.7393 43.4773 11.7393Z" fill="black" stroke="black" stroke-width="0.5"/>
<path d="M49.4149 11.7393H52.9219C54.5746 11.7393 55.9952 13.0316 56.1284 14.7378C56.278 16.6529 54.8052 18.2694 52.9865 18.2694H50.9138C50.8836 18.2694 50.8589 18.295 50.8589 18.3263V21.9689C50.8589 22.0001 50.8341 22.0257 50.8039 22.0257H49.4162C49.386 22.0257 49.3613 22.0001 49.3613 21.9689V11.7961C49.3613 11.7649 49.386 11.7393 49.4162 11.7393H49.4149ZM52.985 16.8008C53.8525 16.8008 54.6404 15.9847 54.6404 15.0051C54.6404 14.0255 53.8525 13.2094 52.985 13.2094H50.9124C50.8822 13.2094 50.8575 13.235 50.8575 13.2662V16.7453C50.8575 16.7765 50.8822 16.8021 50.9124 16.8021H52.985V16.8008Z" fill="black" stroke="black" stroke-width="0.5"/>
<path d="M60.9842 13.2064H58.0989C58.0687 13.2064 58.0439 13.1808 58.0439 13.1496V11.7932C58.0439 11.7619 58.0687 11.7363 58.0989 11.7363H65.4768C65.5069 11.7363 65.5317 11.7619 65.5317 11.7932V13.1496C65.5317 13.1808 65.5069 13.2064 65.4768 13.2064H62.5915C62.5613 13.2064 62.5366 13.232 62.5366 13.2633V21.966C62.5366 21.9972 62.5119 22.0228 62.4817 22.0228H61.094C61.0638 22.0228 61.0391 21.9972 61.0391 21.966V13.2633C61.0391 13.232 61.0143 13.2064 60.9842 13.2064Z" fill="black" stroke="black" stroke-width="0.5"/>
<path d="M67.6245 16.8808C67.6245 13.942 69.8317 11.6572 72.3538 11.6572C74.8752 11.6572 77.0824 13.9434 77.0824 16.8808C77.0824 19.8182 74.8752 22.1043 72.3538 22.1043C69.8317 22.1043 67.6245 19.8182 67.6245 16.8808ZM72.3538 13.0449C70.6982 13.0449 69.1227 14.6771 69.1227 16.8808C69.1227 19.0845 70.6982 20.7167 72.3538 20.7167C74.0087 20.7167 75.5849 19.0845 75.5849 16.8808C75.5849 14.6771 74.0087 13.0449 72.3538 13.0449Z" fill="black" stroke="black" stroke-width="0.5"/>
<path d="M80.3828 11.7393H81.5547C81.5755 11.7393 81.5951 11.7521 81.6045 11.772L85.0865 19.5461C85.106 19.5902 85.1666 19.5902 85.1854 19.5461L88.6681 11.772C88.6775 11.7521 88.6964 11.7393 88.7172 11.7393H89.8898C89.9194 11.7393 89.9443 11.7649 89.9443 11.7961V21.9689C89.9443 22.0001 89.9194 22.0257 89.8898 22.0257H88.502C88.4717 22.0257 88.4468 22.0001 88.4468 21.9689V15.915C88.4468 15.8539 88.3674 15.8368 88.3425 15.8908L85.6233 21.9916C85.6153 22.0115 85.5944 22.0243 85.5742 22.0243H84.6983C84.6775 22.0243 84.6573 22.0115 84.6486 21.9916L81.9294 15.8908C81.9052 15.8354 81.8251 15.8539 81.8251 15.915V21.9689C81.8251 22.0001 81.8009 22.0257 81.7706 22.0257H80.3828C80.3525 22.0257 80.3276 22.0001 80.3276 21.9689V11.7961C80.3276 11.7649 80.3525 11.7393 80.3828 11.7393Z" fill="black" stroke="black" stroke-width="0.5"/>
<path d="M97.0296 11.7393H98.2156C98.2371 11.7393 98.258 11.7535 98.266 11.7762L102.008 21.9489C102.022 21.9859 101.996 22.0257 101.957 22.0257H100.498C100.476 22.0257 100.456 22.0115 100.447 21.9888L99.6074 19.694C99.5987 19.6727 99.5785 19.6571 99.5563 19.6571H95.6908C95.6693 19.6571 95.6484 19.6713 95.6404 19.694L94.8001 21.9888C94.7921 22.0101 94.7712 22.0257 94.7497 22.0257H93.2905C93.2522 22.0257 93.226 21.9859 93.2394 21.9489L96.9811 11.7762C96.9899 11.7549 97.01 11.7393 97.0322 11.7393H97.0296ZM99.0141 18.113L97.6734 14.2544C97.6552 14.2046 97.5879 14.2046 97.5704 14.2544L96.229 18.113C96.2169 18.15 96.2431 18.1884 96.2801 18.1884H98.9623C98.9993 18.1884 99.0269 18.15 99.0128 18.113H99.0141Z" fill="black" stroke="black" stroke-width="0.5"/>
<path d="M106.456 13.2064H103.571C103.541 13.2064 103.516 13.1808 103.516 13.1496V11.7932C103.516 11.7619 103.541 11.7363 103.571 11.7363H110.949C110.979 11.7363 111.004 11.7619 111.004 11.7932V13.1496C111.004 13.1808 110.979 13.2064 110.949 13.2064H108.064C108.033 13.2064 108.009 13.232 108.009 13.2633V21.966C108.009 21.9972 107.984 22.0228 107.954 22.0228H106.566C106.536 22.0228 106.511 21.9972 106.511 21.966V13.2633C106.511 13.232 106.486 13.2064 106.456 13.2064Z" fill="black" stroke="black" stroke-width="0.5"/>
<path d="M13.0182 24.7475H13.9585C14.6448 24.7475 15.2021 24.1702 15.2021 23.4593V10.2881C15.2021 9.57724 14.6448 9 13.9585 9H13.0182C13.0017 9 12.9867 9.00711 12.9757 9.01991L7.0816 16.4557C6.88947 16.6989 6.88947 17.0472 7.0816 17.2903L12.9757 24.7261C12.9867 24.7389 13.0017 24.7461 13.0182 24.7461V24.7475Z" fill="black"/>
<path d="M4.12062 16.463L9.96114 9.09534C9.98993 9.05838 9.96524 9.00293 9.91856 9.00293H1.2436C0.557285 9.00293 0 9.58017 0 10.2911V23.4623C0 24.1732 0.557285 24.7504 1.2436 24.7504H9.91856C9.96524 24.7504 9.98993 24.695 9.96114 24.658L4.12062 17.2904C3.92982 17.0501 3.92982 16.7032 4.12062 16.463Z" fill="black"/>
</g>
<defs>
<clipPath id="clip0_167_59">
<rect width="111" height="32" fill="white"/>
</clipPath>
</defs>
</svg>
