<svg width="32" height="32" viewBox="0 0 32 32" fill="none" xmlns="http://www.w3.org/2000/svg">
<g clip-path="url(#clip0_246_31)">
<path d="M10.3527 7.80381C10.4922 7.12785 11.1535 6.69308 11.8296 6.83248C12.5056 6.97197 12.9403 7.63329 12.8009 8.30938C12.6422 9.07898 12.4302 9.9442 12.1716 10.8659C13.3804 10.1393 14.5817 9.4946 15.726 8.97722C17.0725 8.36835 18.5437 7.87255 19.9473 7.58891C21.3276 7.30999 22.7513 7.2133 23.9504 7.50181C25.1998 7.80255 26.3536 8.57969 26.7039 10.0713C27.0186 11.4112 26.5952 13.0224 25.647 14.8431C25.2828 15.5422 24.8598 16.2049 24.3936 16.8325C25.7311 16.6996 26.9487 16.6307 27.9343 16.6403C29.4123 16.6409 30.81 16.751 31.8778 16.9028C32.4095 16.9785 32.885 17.068 33.2576 17.1675L32.6133 19.5828C32.3729 19.5186 32.0048 19.4456 31.5264 19.3776C30.5763 19.2425 29.2904 19.1409 27.9218 19.1409L27.9101 19.1403C26.3664 19.1253 24.1199 19.3262 21.7363 19.6854C20.145 21.0802 18.3898 22.1968 16.751 23.0238C15.1249 23.8442 13.5542 24.4123 12.2861 24.6901C11.6583 24.8277 11.0527 24.9054 10.5276 24.8855C10.2648 24.8756 9.97762 24.8401 9.70074 24.7486C9.42809 24.6585 9.08555 24.4872 8.82182 24.1541C8.56254 23.8265 8.36805 23.4209 8.33365 22.9497C8.29927 22.4778 8.43454 22.0566 8.63492 21.7133C9.00527 21.0792 9.65563 20.6091 10.2806 20.2552C11.5776 19.5206 13.505 18.8835 15.571 18.3613C17.1583 17.9601 18.8963 17.6099 20.6063 17.3321C21.7374 16.2599 22.7255 15.0412 23.43 13.6885C24.2942 12.0292 24.3758 11.0934 24.27 10.6429C24.1999 10.3443 24.0074 10.0873 23.3661 9.93289C22.6743 9.76638 21.662 9.79352 20.4432 10.0398C19.2474 10.2814 17.9549 10.7123 16.7559 11.2545C14.9253 12.0822 12.9019 13.2791 10.9509 14.6286C10.3451 16.2783 9.63764 17.945 8.85406 19.4517C7.92193 21.244 6.83781 22.9032 5.63209 24.0336C4.43739 25.1536 2.86789 25.9704 1.12975 25.4012C0.74699 25.2758 0.365828 25.0614 0.0691711 24.7126C-0.234301 24.3555 -0.380747 23.9366 -0.415594 23.5237C-0.479334 22.7668 -0.172449 22.016 0.17125 21.4013C0.886594 20.1219 2.23602 18.6128 3.84289 17.1153C5.29351 15.7634 7.03099 14.3506 8.8644 13.0411C9.53362 11.1254 10.0502 9.27049 10.3527 7.80381ZM6.93001 17.7147C6.44605 18.1267 5.98277 18.5379 5.54698 18.944C3.99045 20.3946 2.87384 21.69 2.35307 22.6213C2.24502 22.8146 2.18156 22.9648 2.14122 23.0743C2.57925 23.1221 3.15228 22.9318 3.9223 22.21C4.82607 21.3626 5.75527 19.9919 6.63617 18.2981C6.73572 18.1067 6.83295 17.9116 6.93001 17.7147ZM14.9333 21.1243C13.7408 21.4683 12.7247 21.8309 11.9676 22.1948C12.7948 21.9936 13.8204 21.6377 14.9333 21.1243Z" fill="white"/>
<path opacity="0.5" d="M23.4287 19.4541C22.8778 19.5215 22.3111 19.5999 21.7363 19.6865C20.943 20.3819 20.1087 21.0078 19.2686 21.5635L11.9639 22.1982C11.9675 22.1966 11.971 22.195 11.9746 22.1934C12.7995 21.9921 13.8208 21.6378 14.9287 21.127C18.1266 20.1746 20.0121 19.8931 23.4404 19.4463C23.4371 19.4493 23.4324 19.4509 23.4287 19.4541ZM13.459 21.5947C13.5474 21.5627 13.6383 21.53 13.7363 21.4932C13.8345 21.4621 13.9316 21.4322 14.0273 21.4023C13.8312 21.4656 13.6419 21.5307 13.459 21.5947ZM14.2666 21.3271C14.4549 21.269 14.6389 21.214 14.8184 21.1602C14.6297 21.2153 14.4458 21.2712 14.2666 21.3271ZM10.9512 14.6299C10.5762 15.651 10.1607 16.6778 9.71387 17.6699L5.15039 20.7617C5.65103 20.0596 6.15203 19.2289 6.63574 18.2988C6.73524 18.1075 6.83267 17.9126 6.92969 17.7158C6.44583 18.1278 5.98259 18.5392 5.54688 18.9453C5.35842 19.1209 5.17626 19.2941 5.00098 19.4648L5 19.4473C7.20479 17.391 8.7324 16.0794 11.4453 14.293C11.2803 14.4042 11.1153 14.5163 10.9512 14.6299ZM13.6582 12.8916C13.6504 12.8962 13.6425 12.9007 13.6348 12.9053C13.643 12.9002 13.6509 12.8947 13.6592 12.8896L13.6582 12.8916Z" fill="#262626"/>
</g>
<defs>
<clipPath id="clip0_246_31">
<rect width="32" height="32" rx="16" fill="white"/>
</clipPath>
</defs>
</svg>
