<svg width="63" height="32" viewBox="0 0 63 32" fill="none" xmlns="http://www.w3.org/2000/svg">
<g clip-path="url(#clip0_171_30)">
<path d="M30.5359 14.6299C30.3154 13.1037 28.8244 11.944 27.1129 11.944C24.0193 11.944 22.8564 14.5219 22.8564 17.209C22.8564 19.7676 24.0193 22.3454 27.1129 22.3454C29.2181 22.3454 30.4033 20.9273 30.6658 18.9062H34.0022C33.6504 22.7324 30.9519 25.1817 27.1129 25.1817C22.2632 25.1817 19.4111 21.6357 19.4111 17.209C19.4111 12.6524 22.2632 9.10645 27.1129 9.10645C30.5569 9.10645 33.4523 11.0839 33.8709 14.6299H30.5359Z" fill="black"/>
<path d="M35.0347 9.47168H42.407C45.3903 9.47168 47.4089 10.4167 47.4089 13.2748C47.4089 14.7804 46.6424 15.8334 45.2814 16.4775C47.1897 17.015 48.1557 18.455 48.1557 20.3681C48.1557 23.486 45.4572 24.8167 42.6262 24.8167H35.0347V9.47168ZM38.48 15.683H41.9686C43.1748 15.683 44.0739 15.1442 44.0739 13.8547C44.0739 12.3941 42.9333 12.0932 41.7048 12.0932H38.48V15.683ZM38.48 22.1938H42.1668C43.5265 22.1938 44.7104 21.7644 44.7104 20.1753C44.7104 18.6067 43.7011 17.9818 42.2311 17.9818H38.48V22.1938Z" fill="black"/>
<path d="M52.3911 19.7229C52.3911 21.7646 54.016 22.5592 55.8588 22.5592C57.065 22.5592 58.9077 22.2159 58.9077 20.6473C58.9077 18.9926 56.561 18.7136 54.2575 18.1106C51.9318 17.5089 49.5837 16.6269 49.5837 13.7482C49.5837 10.6098 52.6103 9.10547 55.4414 9.10547C58.7095 9.10547 61.7165 10.5017 61.7165 14.049H58.3814C58.2725 12.2015 56.9324 11.7283 55.2865 11.7283C54.1919 11.7283 52.9175 12.1796 52.9175 13.4692C52.9175 14.6507 53.6643 14.8012 57.5913 15.7912C58.7331 16.0689 62.2428 16.7786 62.2428 20.2603C62.2428 23.076 59.9826 25.182 55.7262 25.182C52.2599 25.182 49.0128 23.5055 49.0561 19.7229H52.3911Z" fill="black"/>
<path d="M0.756836 16.9979C0.756836 12.4311 4.53552 8.72949 9.19752 8.72949C13.8608 8.72949 17.6408 12.4311 17.6408 16.9979C17.6408 21.5661 13.8608 25.2702 9.19752 25.2702C4.53552 25.2702 0.756836 21.5661 0.756836 16.9979ZM17.129 16.9979C15.8493 14.2645 12.8791 12.0672 9.19752 12.0672C5.51596 12.0672 2.54709 14.2645 1.2674 16.9979C2.54709 19.7326 5.51596 21.9286 9.19752 21.9286C12.8791 21.9286 15.8493 19.7326 17.129 16.9979Z" fill="black"/>
<path d="M4.68262 16.9565C4.68262 14.5343 6.68418 12.5723 9.15431 12.5723C11.6257 12.5723 13.6286 14.5343 13.6286 16.9565C13.6286 19.3763 11.6257 21.3383 9.15431 21.3383C6.68418 21.3383 4.68262 19.3763 4.68262 16.9565Z" fill="black"/>
</g>
<defs>
<clipPath id="clip0_171_30">
<rect width="63" height="18" fill="white" transform="translate(0 8)"/>
</clipPath>
</defs>
</svg>
