<svg width="105" height="32" viewBox="0 0 105 32" fill="none" xmlns="http://www.w3.org/2000/svg">
<g clip-path="url(#clip0_185_16)">
<path d="M87.9784 9.55664C86.5436 9.55581 85.1196 9.81769 83.7703 10.3305L83.7554 10.3366V10.8674C83.837 10.8348 83.9774 10.7852 84.1822 10.7356C84.2845 10.7114 84.3869 10.6897 84.4882 10.6715L84.5952 10.6558C85.9181 10.4563 87.057 10.7392 87.7415 11.5639C89.2381 13.3692 87.998 17.0778 84.9702 19.8469C84.5848 20.1999 84.1891 20.5192 83.7876 20.8057L83.7554 20.8275V21.7114C83.8773 21.6232 83.9993 21.5337 84.1189 21.4406C84.2834 21.7332 85.3797 23.5724 85.3993 23.6038C85.4809 23.5482 85.7168 23.3898 86.0032 23.1854C86.3931 22.9056 86.7704 22.607 87.134 22.2906L85.4602 20.2725C85.6293 20.0972 86.1965 19.5047 86.6463 18.9424C86.7521 19.027 88.1464 20.1637 88.7043 20.6897C89.1364 20.1974 89.5369 19.6755 89.903 19.1274C89.1334 18.5966 87.5367 17.6389 87.5367 17.6389C87.8024 17.1963 88.0302 16.7525 88.2166 16.3148C88.2166 16.3148 90.079 17.0802 90.8394 17.4732C91.0619 17.0002 91.2492 16.5099 91.3997 16.0065C90.4564 15.605 88.7722 15.183 88.6203 15.1455C88.7193 14.7634 88.7848 14.391 88.8113 14.0319C89.7795 14.1401 90.7391 14.3211 91.6827 14.5736C91.7212 14.1829 91.7162 13.7889 91.6677 13.3995C90.7198 13.217 89.7588 13.1203 88.7952 13.1105C88.7628 12.8346 88.699 12.5639 88.6054 12.3039C88.6054 12.3039 89.9548 12.1794 91.3652 12.3535C91.289 12.1912 91.2026 12.0344 91.1063 11.8843C91.0311 11.7755 90.9529 11.669 90.8716 11.5651C90.8716 11.5651 89.6787 11.4696 88.2971 11.6872C88.1738 11.5032 88.0306 11.3348 87.8703 11.1854C88.6372 11.0141 89.4192 10.9282 90.2033 10.9291C89.8559 10.6788 89.4946 10.5107 89.4946 10.5107C88.5191 10.53 87.4964 10.8154 87.4147 10.8384C87.1363 10.6667 86.9189 10.5978 86.8925 10.5893L86.8902 10.5881L86.8913 10.5869C86.9707 10.5615 87.7242 10.3221 88.2764 10.2592H88.2741C87.5229 10.1552 86.4887 10.4031 86.369 10.4333C86.1871 10.3972 86.0036 10.3701 85.8192 10.3523C85.8192 10.3523 86.3759 10.183 87.1122 10.0742C87.7829 9.97502 90.0319 9.68482 91.4687 11.7175C92.8296 13.6425 92.3349 16.6292 90.4874 19.4938C89.9739 20.3 89.3905 21.0546 88.7446 21.7477C88.1786 22.3656 87.6057 22.9001 87.0593 23.3559C86.2205 24.0654 85.3109 24.6772 84.3467 25.1806C84.15 25.2906 83.9532 25.3946 83.7554 25.4938V26.4249C85.3337 25.6401 86.269 24.8928 86.269 24.8928L87.5977 26.8759C87.5977 26.8759 88.6272 26.1975 89.6603 25.3039L88.0682 23.4091H88.067C88.6579 22.8598 89.2132 22.2696 89.7293 21.6425C89.7293 21.6425 91.3813 23.1842 91.5619 23.3656C92.0865 22.7441 92.5673 22.0911 92.9941 21.4103C92.3429 20.8772 91.6769 20.3643 90.997 19.8723C90.997 19.8723 91.67 18.7404 91.9438 18.05C91.9438 18.05 93.0332 18.6752 94.0628 19.3777C94.3147 18.7852 94.5241 18.1709 94.6737 17.5433C93.9972 17.1141 92.4937 16.4091 92.4937 16.4091C92.6225 15.8771 92.6996 15.3571 92.7215 14.8553C92.7215 14.8553 93.8143 15.2193 94.9164 15.8009C94.9348 15.3207 94.9036 14.8399 94.8232 14.3668C93.8903 13.8952 92.649 13.576 92.649 13.576C92.5858 13.1887 92.4776 12.811 92.3269 12.4514C92.3269 12.4514 93.4554 12.6739 94.4528 13.0996C94.3143 12.7669 94.1268 12.4592 93.8972 12.1878C93.2575 11.8202 91.8035 11.5409 91.8035 11.5409C91.645 11.3295 91.4687 11.1336 91.2766 10.9557C91.7344 11.0222 92.4477 11.1927 92.4477 11.1927C91.6631 10.7888 90.7796 10.5566 90.7693 10.553C90.7681 10.553 90.5944 10.4321 90.385 10.3148C90.385 10.3148 92.5777 10.7876 93.7683 11.732C93.8764 11.8166 93.98 11.9121 94.0847 12.0186C94.2055 12.1395 94.3101 12.2749 94.4022 12.4079C96.7754 15.8215 94.7231 22.3995 88.939 26.9992H91.0902C90.9435 26.8294 90.7974 26.6589 90.6519 26.4877C91.3325 25.8289 91.9662 25.1184 92.5478 24.362L93.98 25.8602C94.5414 25.1891 95.0613 24.472 95.5215 23.7175C95.5215 23.7175 94.7691 22.9593 93.9685 22.2278C94.6115 21.1359 95.0084 20.0476 95.0084 20.0476C95.0694 20.0947 95.8494 20.7042 96.6489 21.4865C97.0343 20.5978 97.2735 19.466 97.2735 19.466C96.4407 18.6691 95.5859 18.0996 95.5859 18.0996C95.7158 17.4961 95.7913 16.8812 95.8114 16.2628C95.8114 16.2628 96.7167 16.8287 97.499 17.5518C97.5084 17.0165 97.4598 16.4818 97.3541 15.9581C96.5775 15.2519 95.7159 14.7779 95.7159 14.7779C95.7148 14.7779 95.6319 14.1854 95.3558 13.4696L95.3627 13.4732C95.4157 13.501 95.8275 13.7211 96.5545 14.2652C95.9874 13.4926 95.0119 12.732 95.0119 12.732C94.9156 12.5614 94.8092 12.3975 94.6932 12.241C95.4937 12.8165 96.2253 13.4912 96.872 14.2507C97.1113 14.5663 97.3311 14.969 97.5013 15.4297C97.5473 15.5554 97.5876 15.6812 97.6232 15.8057C98.1547 17.6909 97.828 19.8094 97.2287 21.5446C96.5373 23.5446 95.3858 25.4128 94.0352 26.9992H96.5822C96.8295 26.6316 97.0515 26.281 97.2793 25.8783C97.109 25.6062 96.3337 24.6534 96.3337 24.6534C96.7643 23.9145 97.1371 23.1401 97.4484 22.3378C97.4484 22.3378 97.9661 22.9412 98.3721 23.5615C98.7713 22.5579 98.9577 21.5107 98.9577 21.5107C98.6839 21.0307 98.0719 20.2858 98.0719 20.2858C98.2065 19.6477 98.2809 18.9973 98.2939 18.3438C98.5999 18.7284 99.0129 19.3354 99.0129 19.3354V19.3317C98.9347 18.1419 98.3503 17.0585 98.2215 16.8311L98.2088 16.7574C98.1335 16.3843 98.0379 16.0161 97.9224 15.6546C98.5804 16.6739 99.0026 17.8203 99.0026 17.8203C99.2729 18.5579 99.4351 19.4889 99.4351 20.5022C99.4351 21.0391 99.3327 23.8396 97.2977 26.9992H97.9419C98.3484 26.2067 98.708 25.3885 99.0187 24.5494C99.0267 24.5748 99.1671 24.9629 99.2706 25.3656C99.4869 24.5639 99.641 23.7284 99.7273 22.8698C99.6997 22.7586 99.6422 22.5772 99.61 22.4684C99.61 22.4684 99.748 21.738 99.8032 20.9061C100.009 22.4785 99.9334 24.0774 99.5812 25.6207C99.4673 26.096 99.3293 26.5627 99.1786 26.9992H99.7273C100.185 25.6135 100.421 24.1528 100.421 22.6848C100.421 15.4454 94.8393 9.55664 87.9784 9.55664ZM83.7554 18.2048V19.9508C84.0499 19.7501 84.3444 19.5276 84.6331 19.2822L83.7554 18.2048ZM84.1557 10.9774C84.0183 11.074 83.8847 11.1765 83.7554 11.2846V11.6897C84.1256 11.3855 84.5158 11.1091 84.923 10.8626C84.6649 10.8806 84.4084 10.919 84.1557 10.9774ZM85.2773 17.8529L83.7554 16.7344V15.7791C84.5296 14.6219 84.6412 13.293 83.9624 12.6449C83.899 12.5844 83.8296 12.5313 83.7554 12.4865V12.0101L83.768 12.0173C83.768 12.0173 84.7378 11.2108 85.5074 10.8638C85.6938 10.8771 85.8721 10.9049 86.0412 10.946C84.8896 11.4587 84.0395 12.0959 83.9808 12.1407C84.0993 12.2144 84.2063 12.3063 84.2213 12.3184C84.9675 11.8408 85.7581 11.4441 86.5807 11.1346C86.7475 11.2144 86.9086 11.3148 87.0478 11.4273C85.7099 11.8227 84.4237 12.5276 84.4237 12.5276C84.4962 12.6171 84.5606 12.7126 84.6159 12.8154C84.6231 12.8121 84.6304 12.8089 84.6377 12.8057C86.0078 12.1891 87.4619 11.8735 87.4619 11.8735C87.5758 12.0379 87.6701 12.2205 87.7415 12.4224C87.7415 12.4224 86.4358 12.5796 84.7562 13.1455C84.8298 13.3898 84.8505 13.5724 84.8505 13.5748C84.8505 13.5748 86.4346 13.2024 87.8945 13.1612C87.9141 13.4301 87.9072 13.7004 87.8737 13.9678C87.0087 13.9206 84.9495 14.0355 84.8678 14.0415C84.8678 14.0415 84.8609 14.3535 84.7838 14.6473C84.7838 14.6473 86.2885 14.6981 87.6575 14.9666C87.5496 15.3159 87.4154 15.6555 87.256 15.9823C86.3751 15.7164 85.4879 15.4744 84.5952 15.2568C84.4963 15.5117 84.3762 15.7569 84.2362 15.9895C84.2362 15.9895 85.9273 16.7658 86.5773 17.1455L86.5784 17.1467C86.2966 17.5893 85.7375 18.2108 85.7375 18.2108C85.5849 18.0904 85.4315 17.9711 85.2773 17.8529Z" fill="white"/>
<path d="M87.9779 9.55623C94.8388 9.55623 100.42 15.445 100.42 22.6844C100.42 24.1524 100.185 25.6131 99.7268 27H102.781V7H83.7549V10.3362L83.7698 10.3301C85.1191 9.81727 86.5431 9.5554 87.9779 9.55623ZM83.7549 15.7787C84.5291 14.6215 84.6406 13.2926 83.9619 12.6445C83.8985 12.584 83.8291 12.5309 83.7549 12.4861V15.7787ZM87.7409 11.5635C87.0565 10.7388 85.9176 10.4559 84.5946 10.6554L84.4876 10.6711C84.3851 10.6897 84.2831 10.711 84.1816 10.7352C83.9769 10.7848 83.8365 10.8343 83.7549 10.867V11.2842C83.886 11.1753 84.0183 11.0726 84.1552 10.977C84.4186 10.9166 84.6752 10.8791 84.9225 10.8622C84.5406 11.0919 84.0988 11.4027 83.7549 11.6892V12.0097L83.7675 12.0169C83.7675 12.0169 84.7373 11.2104 85.5069 10.8634C85.6932 10.8767 85.8716 10.9045 86.0407 10.9456C84.8891 11.4583 84.039 12.0955 83.9803 12.1403C84.0988 12.214 84.2058 12.3059 84.2208 12.318C84.967 11.8404 85.7576 11.4437 86.5802 11.1342C86.747 11.214 86.9081 11.3144 87.0473 11.4268C85.7094 11.8223 84.4232 12.5272 84.4232 12.5272C84.4957 12.6167 84.5601 12.7122 84.6153 12.815C84.6226 12.8117 84.6299 12.8085 84.6372 12.8053C86.0073 12.1886 87.4614 11.873 87.4614 11.873C87.5753 12.0375 87.6696 12.2201 87.7409 12.422C87.7409 12.422 86.4352 12.5792 84.7557 13.1451C84.8293 13.3894 84.85 13.572 84.85 13.5744C84.85 13.5744 86.4341 13.2019 87.8939 13.1608C87.9136 13.4297 87.9067 13.7 87.8732 13.9674C87.0081 13.9202 84.9489 14.0351 84.8673 14.0411C84.8673 14.0411 84.8604 14.3531 84.7833 14.6469C84.7833 14.6469 86.288 14.6977 87.657 14.9661C87.5491 15.3154 87.4149 15.6551 87.2555 15.9819C86.3746 15.7159 85.4874 15.474 84.5946 15.2564C84.4957 15.5112 84.3756 15.7564 84.2357 15.9891C84.2357 15.9891 85.9268 16.7654 86.5767 17.1451L86.5779 17.1463C86.296 17.5889 85.737 18.2104 85.737 18.2104C85.5844 18.09 85.431 17.9707 85.2768 17.8525L83.7549 16.734V18.2044L84.6326 19.2818C84.3513 19.5206 84.0583 19.7438 83.7549 19.9504V20.8271L83.7871 20.8053C84.1885 20.5188 84.5843 20.1995 84.9697 19.8464C87.9975 17.0774 89.2376 13.3688 87.7409 11.5635ZM91.4682 11.7171C90.0313 9.6844 87.7823 9.97461 87.1117 10.0738C86.3754 10.1826 85.8186 10.3519 85.8186 10.3519C85.9831 10.3676 86.2075 10.399 86.3685 10.4329C86.4882 10.4027 87.5224 10.1548 88.2736 10.2588H88.2759C87.7237 10.3216 86.9702 10.5611 86.8908 10.5865L86.8896 10.5877L86.8919 10.5889C86.9184 10.5973 87.1358 10.6663 87.4142 10.838C87.4959 10.815 88.5186 10.5296 89.4941 10.5103C89.4941 10.5103 89.8553 10.6784 90.2028 10.9287C89.4187 10.9278 88.6367 11.0137 87.8698 11.185C88.017 11.3229 88.1643 11.4885 88.2966 11.6868C89.6782 11.4692 90.8711 11.5647 90.8711 11.5647C90.8711 11.5647 91.0322 11.7715 91.1058 11.8839C91.1978 12.0242 91.2922 12.1995 91.3646 12.3531C89.9543 12.179 88.6049 12.3035 88.6049 12.3035C88.6969 12.5562 88.7602 12.8259 88.7947 13.11C88.9511 13.1088 90.1452 13.1113 91.6672 13.399C91.7155 13.7654 91.7201 14.1584 91.6821 14.5732C90.7386 14.3207 89.779 14.1397 88.8108 14.0314C88.7843 14.3906 88.7188 14.763 88.6198 15.1451C88.7717 15.1826 90.4558 15.6046 91.3992 16.0061C91.2487 16.5094 91.0614 16.9998 90.8389 17.4728C90.0785 17.0798 88.216 16.3144 88.216 16.3144C88.0297 16.7521 87.8019 17.1959 87.5362 17.6385C87.5362 17.6385 89.1329 18.5961 89.9025 19.127C89.5363 19.6751 89.1359 20.197 88.7038 20.6892C88.1459 20.1633 86.7516 19.0266 86.6458 18.942C86.2684 19.4027 85.8727 19.8465 85.4597 20.2721L87.1335 22.2902C86.7702 22.607 86.3928 22.9056 86.0027 23.185C85.7163 23.3894 85.4804 23.5478 85.3988 23.6034C85.3792 23.572 84.2829 21.7328 84.1184 21.4402C83.9987 21.5333 83.8768 21.6227 83.7549 21.711V25.4934C83.9527 25.3942 84.1494 25.2902 84.3462 25.1802C85.3104 24.6768 86.2199 24.065 87.0587 23.3555C87.6539 22.8594 88.2169 22.3221 88.7441 21.7473C89.4159 21.0218 90.0003 20.2636 90.4869 19.4934C92.3344 16.6288 92.8291 13.6421 91.4682 11.7171ZM94.4017 12.4075C94.3072 12.2679 94.2009 12.1376 94.0841 12.0181C93.9847 11.9156 93.879 11.8198 93.7678 11.7316C92.5771 10.7872 90.3845 10.3144 90.3845 10.3144C90.5939 10.4317 90.7676 10.5526 90.7687 10.5526C90.7791 10.5562 91.6626 10.7884 92.4472 11.1923C92.4472 11.1923 91.7339 11.0218 91.2761 10.9553C91.4659 11.1294 91.6453 11.3313 91.8029 11.5405C91.8029 11.5405 93.257 11.8198 93.8966 12.1874C93.8966 12.1874 94.2026 12.5187 94.4523 13.0992C93.4549 12.6735 92.3264 12.451 92.3264 12.451C92.4759 12.8041 92.5829 13.1826 92.6485 13.5756C92.6485 13.5756 93.8897 13.8948 94.8227 14.3664C94.9032 14.8319 94.9331 15.3132 94.9159 15.8005C93.8138 15.2189 92.7209 14.8549 92.7209 14.8549C92.6953 15.3796 92.619 15.9002 92.4932 16.4087C92.4932 16.4087 93.9967 17.1137 94.6731 17.5429C94.5207 18.1719 94.3163 18.7857 94.0623 19.3773C93.0327 18.6747 91.9433 18.0496 91.9433 18.0496C91.6695 18.74 90.9965 19.8718 90.9965 19.8718C91.0138 19.8839 92.1342 20.6929 92.9936 21.4099C92.5611 22.0967 92.0825 22.7501 91.5614 23.3652C91.3807 23.1838 89.7288 21.6421 89.7288 21.6421C89.2307 22.2491 88.675 22.8416 88.0665 23.4087L89.6598 25.3035C88.6267 26.1971 87.5971 26.8755 87.5971 26.8755L86.2684 24.8924C86.2684 24.8924 85.3332 25.6397 83.7549 26.4244V27H88.9385C94.7226 22.399 96.7749 15.821 94.4017 12.4075ZM94.0347 27C95.3852 25.4123 96.5368 23.5441 97.2281 21.5441C97.8275 19.809 98.1542 17.6905 97.6227 15.8053C97.5866 15.6784 97.5459 15.553 97.5008 15.4293C97.3481 15.0055 97.136 14.6082 96.8715 14.2503C96.2247 13.4908 95.4932 12.8161 94.6927 12.2406C94.81 12.4002 94.9182 12.5647 95.0114 12.7316C95.0114 12.7316 95.9869 13.4921 96.554 14.2648C95.827 13.7207 95.4151 13.5006 95.3622 13.4728L95.3553 13.4692C95.6314 14.185 95.7142 14.7775 95.7154 14.7775C95.7154 14.7775 96.577 15.2515 97.3535 15.9577C97.4617 16.4801 97.5054 17.0157 97.4985 17.5514C96.7162 16.8283 95.8109 16.2624 95.8109 16.2624C95.7908 16.8807 95.7153 17.4957 95.5854 18.0992C95.5854 18.0992 96.4401 18.6687 97.273 19.4655C97.273 19.4655 97.0337 20.5974 96.6484 21.4861C96.1253 20.9773 95.5778 20.497 95.0079 20.0472C95.0079 20.0472 94.611 21.1354 93.968 22.2273C94.7686 22.9589 95.521 23.7171 95.521 23.7171C95.0608 24.4716 94.5409 25.1886 93.9795 25.8597L92.5472 24.3616C91.9657 25.118 91.332 25.8285 90.6514 26.4873L91.0897 27H94.0347ZM96.5816 27H97.2972C99.3322 23.8392 99.4346 21.0387 99.4346 20.5018C99.4346 19.4885 99.2724 18.5574 99.002 17.8198C99.002 17.8198 98.5798 16.6735 97.9218 15.6542C97.9931 15.8815 98.1312 16.3434 98.2083 16.757L98.2209 16.8307C98.3498 17.058 98.9342 18.1415 99.0124 19.3313V19.335C99.0124 19.335 98.5994 18.7279 98.2934 18.3434C98.2803 18.9968 98.206 19.6473 98.0714 20.2854C98.0714 20.2854 98.6834 21.0302 98.9572 21.5103C98.9572 21.5103 98.7708 22.5574 98.3716 23.5611C97.9655 22.9408 97.4479 22.3374 97.4479 22.3374C97.1366 23.1397 96.7638 23.9141 96.3331 24.653C96.3331 24.653 97.1085 25.6058 97.2788 25.8779C97.051 26.2805 96.829 26.6312 96.5816 27ZM97.9414 27C98.3477 26.2069 98.7073 25.3884 99.0181 24.549C99.0262 24.5744 99.1665 24.9625 99.2701 25.3652C99.4864 24.5635 99.6405 23.7279 99.7268 22.8694C99.6992 22.7582 99.6417 22.5768 99.6094 22.468C99.6094 22.468 99.7475 21.7376 99.8027 20.9057C100.008 22.4781 99.9329 24.077 99.5807 25.6203C99.4684 26.087 99.334 26.5474 99.178 27H97.9414ZM104.218 25.3543C104.115 25.3543 104.013 25.3756 103.919 25.4169C103.824 25.4582 103.737 25.5188 103.665 25.5951C103.592 25.6715 103.534 25.7621 103.495 25.8619C103.456 25.9617 103.436 26.0686 103.436 26.1766C103.436 26.2845 103.456 26.3915 103.495 26.4912C103.534 26.591 103.592 26.6816 103.665 26.758C103.737 26.8343 103.824 26.8949 103.919 26.9362C104.013 26.9775 104.115 26.9988 104.218 26.9988C104.425 26.9988 104.624 26.9122 104.771 26.758C104.918 26.6038 105 26.3946 105 26.1766C105 25.9585 104.918 25.7493 104.771 25.5951C104.624 25.4409 104.425 25.3543 104.218 25.3543ZM104.218 25.4764C104.395 25.4768 104.564 25.551 104.689 25.6827C104.814 25.8145 104.884 25.993 104.884 26.179C104.884 26.365 104.813 26.5432 104.688 26.6745C104.562 26.8058 104.393 26.8794 104.216 26.8791C104.039 26.8788 103.869 26.8046 103.744 26.6728C103.619 26.5411 103.549 26.3626 103.55 26.1766C103.55 25.9906 103.62 25.8123 103.746 25.681C103.871 25.5497 104.041 25.4761 104.218 25.4764ZM103.937 25.7618H104.309C104.453 25.7618 104.548 25.8501 104.548 25.9855C104.548 26.1209 104.464 26.1995 104.339 26.2153L104.593 26.5647H104.44L104.203 26.2213H104.053V26.5647H103.937V25.7618ZM104.053 25.8791V26.1088H104.305C104.386 26.1088 104.425 26.0677 104.425 25.9952C104.425 25.919 104.384 25.8791 104.305 25.8791H104.053ZM38.0777 14.6808H41.7566V22.0206H44.5889V14.6808H48.2667V11.9794H38.0777V14.6808ZM55.2978 18.0653H61.1855V15.9347H55.2978V14.4389H61.6399V11.9794H52.4644V22.0206H61.6916V19.5611H55.2978V18.0653ZM68.9828 19.3192H71.5044C73.3496 19.3192 74.1814 18.6094 74.1814 17C74.1814 15.3906 73.3496 14.6808 71.5044 14.6808H68.9828V19.3192ZM66.1494 11.9794H71.6079C75.4031 11.9794 77.1447 13.7122 77.1447 17C77.1447 20.2878 75.4031 22.0206 71.6079 22.0206H66.1494V11.9794ZM31.0477 22.0206H33.8811V11.9794H31.0477V22.0206ZM23.4701 17.8223L18.1945 11.9794H15.4002V22.0206H18.038V15.6566L23.7957 22.0206H26.1091V11.9794H23.4701V17.8223ZM0 17.1028V11.9794H2.83339V16.9516C2.83339 18.8646 3.69733 19.6711 5.36078 19.6711C7.02424 19.6711 7.88818 18.8646 7.88818 16.9516V11.9794H10.7216V17.1028C10.7216 20.682 8.99945 22.2249 5.36078 22.2249C1.72212 22.2249 0 20.682 0 17.1028Z" fill="black"/>
</g>
<defs>
<clipPath id="clip0_185_16">
<rect width="105" height="20" fill="white" transform="translate(0 7)"/>
</clipPath>
</defs>
</svg>
