<svg width="312" height="70" viewBox="0 0 312 70" fill="none" xmlns="http://www.w3.org/2000/svg">
<path d="M303.942 17.1914V63.9688H308.198V68.5947H290.802V63.9688H295.032V30.3535H290.802V25.7012H295.032V21.4463H299.288V17.1914H303.942ZM303.942 0.198242V9.10449H295.032V0.198242H303.942Z" fill="#CAC7C4" stroke="#CAC7C4" stroke-width="0.39711"/>
<path d="M274.884 21.1982V25.4756H278.988V29.7529H283.094V63.9463H287.198V68.5947H278.592V64.3438H270.804V68.5947H253.986V64.3438H249.882V60.0664H245.802V51.1143H249.882V46.8369H258.092V42.5596H270.406V38.3076H274.486V30.1504H270.406V25.8721H258.488V30.1504H254.384V34.4277H245.802V29.7529H249.882V25.4756H253.986V21.1982H274.884ZM270.804 47.2334H258.488V51.5117H254.384V59.6689H258.488V63.9463H270.406V59.6689H274.486V42.9561H270.804V47.2334Z" fill="#CAC7C4" stroke="#CAC7C4" stroke-width="0.39711"/>
<path d="M154.811 68.3039C145.852 68.3039 141.647 61.6304 141.647 53.0371V24.6976H135.887V23.4178C143.201 22.6864 148.869 18.0241 150.331 9.70508H151.611V21.0409H165.233L163.678 24.6976H151.611V52.0316C151.611 58.1565 154.354 62.5446 158.925 62.5446C162.856 62.5446 165.141 59.345 165.873 55.9625L166.97 56.1454C166.147 62.7274 161.393 68.3039 154.811 68.3039Z" fill="#CAC7C4"/>
<path d="M100.333 68.4886L98.7791 49.1995L99.9675 48.9252C102.07 55.233 106.915 66.6603 117.154 66.7517C123.005 66.7517 126.479 63.2778 126.57 58.8898C126.57 54.4103 123.645 51.7592 116.331 49.1995L110.846 47.0054C103.533 44.2629 99.1447 40.1491 99.2361 33.2013C99.419 25.7051 106.458 20.1286 115.417 20.22C123.919 20.3114 127.667 25.7051 129.495 19.6715L130.775 19.5801L131.964 37.498L130.684 37.6808C128.856 31.373 123.188 21.6827 115.234 21.5913C110.115 21.4998 106.915 24.9737 106.915 29.0875C106.915 33.2013 110.023 36.0353 116.514 38.3207L121.908 40.5148C130.227 43.623 134.249 47.6454 134.066 54.136C133.884 63.2778 125.747 68.3058 117.611 68.2144C108.104 68.0315 103.99 62.7293 101.704 68.3972L100.333 68.4886Z" fill="#CAC7C4"/>
<path d="M88.0369 68.1213C82.7347 68.1213 79.9921 64.3732 79.2608 58.6139L78.9865 56.6027C77.8895 62.362 72.4044 68.3042 63.994 68.3042C56.2235 68.3042 50.8298 63.2762 50.8298 56.5113C50.8298 50.3863 55.2179 45.9982 63.3541 45.2669L77.2496 44.1699L76.6097 39.5075C75.5127 31.1885 71.7645 25.7034 64.8168 25.7034C59.4231 25.7034 55.4007 29.0859 53.3895 33.931L52.2011 33.6568C53.938 27.1661 60.5201 20.127 69.8448 20.127C79.078 20.127 84.9287 26.1605 86.3 37.0393L88.9511 57.2426C89.4996 61.1736 91.0537 62.362 92.6078 62.362C93.8877 62.362 94.8018 61.265 95.0761 59.7109L96.1731 59.8023C95.9903 63.7333 93.1563 68.1213 88.0369 68.1213ZM60.063 54.5001C60.063 58.8881 63.2627 62.9105 68.8392 62.9105C74.6899 62.9105 78.2552 58.7053 78.7123 54.5001L77.4324 45.5411L68.4735 46.2725C62.897 46.821 60.063 50.112 60.063 54.5001Z" fill="#CAC7C4"/>
<path d="M15.9067 68.389V67.2006C19.6548 67.2006 22.306 65.4636 22.306 59.1558V5.95059H17.3694C8.77612 5.95059 2.83395 13.8125 1.27985 23.5942L0 23.4114L2.92537 4.39648H52.1082L54.7593 23.4114L53.5709 23.5942C51.9254 13.8125 46.2574 5.95059 37.6642 5.95059H32.7276V59.1558C32.7276 65.4636 35.3787 67.2006 39.1269 67.2006V68.389H15.9067Z" fill="#CAC7C4"/>
<path d="M202.057 20.0986V24.3428H206.033V28.5869H210.009V37.6719H178.226V49.7822H182.201V58.2715H186.178V62.5156H201.461V58.2715H205.438V54.0273H210.009V58.8672H206.033V63.1113H202.057V67.3291H181.605V63.1113H177.63V58.8672H173.654V50.3779H169.702V37.0762H173.654V28.6104L173.95 28.6084L177.643 28.5889L177.63 24.6699L177.629 24.3711H181.585V20.0986H202.057ZM182.181 29.1836H178.238L178.226 31.0088V32.8311H201.461V29.1826H197.485V24.9668H182.181V29.1836Z" fill="#CAC7C4" stroke="#CAC7C4" stroke-width="0.595665"/>
<path d="M182.559 28.8887H177.88V33.1537H182.559V28.8887Z" fill="#CAC7C4"/>
<path d="M185.145 24.6699H181.882V28.887H185.145V24.6699Z" fill="#CAC7C4"/>
</svg>
