<svg width="24" height="24" viewBox="0 0 24 24" fill="none" xmlns="http://www.w3.org/2000/svg">
<path d="M4.03452 18C3.36304 18 2.89502 17.3337 3.12278 16.7021L7.02452 5.88081C7.16749 5.4843 7.54374 5.22 7.96524 5.22H9.02633C9.44783 5.22 9.82408 5.4843 9.96705 5.88081L13.868 16.6999C14.0961 17.3326 13.6273 18 12.9547 18C12.5426 18 12.1754 17.7398 12.0387 17.351L11.0968 14.67H5.87679L4.95046 17.3477C4.81539 17.7381 4.44766 18 4.03452 18ZM6.48879 12.906H10.5028L8.48679 7.074L6.48879 12.906Z" fill="white"/>
<path d="M17.9951 6V12" stroke="white" stroke-width="2" stroke-linecap="round"/>
<path d="M15 9.005L21 9.005" stroke="white" stroke-width="2" stroke-linecap="round"/>
</svg>
