<svg width="24" height="24" viewBox="0 0 24 24" fill="none" xmlns="http://www.w3.org/2000/svg">
<path d="M9.50003 10.25V15.5C9.1667 15.3333 8.20003 14.4 7.00003 14C5.50003 13.5 3.50004 15.5 5.00003 16.5L5.00032 16.5002C6.36563 17.4104 8.00007 18.5001 9 19.5C9.49616 19.9962 9.90343 20.7111 10.1678 21.2495C10.3782 21.678 10.8393 21.9434 11.3102 21.865L16.0151 21.0808C16.3209 21.0299 16.5856 20.8408 16.7245 20.5636C17.1429 19.7285 18 17.9071 18 17C18 15.5 18 14.5 17 13.5C16.2 12.7 14 12.5 13 12.5V10.25C13 9.2835 12.2165 8.5 11.25 8.5C10.2835 8.5 9.50003 9.2835 9.50003 10.25Z" stroke="black" stroke-width="2" stroke-linecap="round" stroke-linejoin="round"/>
<path d="M11 2.00002C14.1667 1.66669 20.5 1.50005 20.5 3.50005C20.5 7.00002 3.5 3 3.5 6.5C3.5 8.50002 7 8.50002 7 8.50002" stroke="black" stroke-width="2" stroke-linecap="round"/>
</svg>
