<svg width="80" height="80" viewBox="0 0 80 80" fill="none" xmlns="http://www.w3.org/2000/svg">
<g opacity="0.2">
<path d="M31.6664 34.1668V51.6668C30.5553 51.1113 27.3331 48.0002 23.3331 46.6668C18.3331 45.0002 11.6665 51.6668 16.6664 55.0002L16.6674 55.0008C21.2184 58.0349 26.6666 61.6671 29.9997 65.0002C31.6535 66.654 33.0111 69.0373 33.8922 70.8319C34.5935 72.2603 36.1307 73.145 37.7003 72.8834L53.3833 70.2696C54.4027 70.0997 55.285 69.4694 55.7479 68.5455C57.1426 65.7619 59.9998 59.6906 59.9998 56.6668C59.9998 51.6668 59.9998 48.3335 56.6664 45.0002C53.9998 42.3335 46.6664 41.6668 43.3331 41.6668V34.1668C43.3331 30.9452 40.7214 28.3335 37.4998 28.3335C34.2781 28.3335 31.6664 30.9452 31.6664 34.1668Z" stroke="black" stroke-width="6.66667" stroke-linecap="round" stroke-linejoin="round"/>
<path d="M36.667 6.66678C47.2225 5.55567 68.3337 5.00021 68.3337 11.6669C68.3337 23.3334 11.667 10 11.667 21.6667C11.667 28.3334 23.3337 28.3334 23.3337 28.3334" stroke="black" stroke-width="6.66667" stroke-linecap="round"/>
</g>
</svg>
