<svg width="24" height="24" viewBox="0 0 24 24" fill="none" xmlns="http://www.w3.org/2000/svg">
<path d="M7.00044 17.9999C5.75272 17.9999 4.5561 17.5258 3.67383 16.6819C2.79155 15.838 2.2959 14.6934 2.2959 13.4999C2.2959 12.3065 2.79155 11.1619 3.67383 10.318C4.5561 9.47406 5.75272 8.99995 7.00044 8.99995C7.29513 7.68713 8.15721 6.53343 9.39703 5.79267C10.0109 5.42587 10.6991 5.1715 11.4222 5.04406C12.1453 4.91663 12.8893 4.91863 13.6116 5.04995C14.3338 5.18127 15.0203 5.43934 15.6317 5.80943C16.2432 6.17952 16.7677 6.65437 17.1752 7.20688C17.5828 7.75939 17.8654 8.37873 18.007 9.02955C18.1486 9.68036 18.1464 10.3499 18.0004 10.9999H19.0004C19.9287 10.9999 20.8189 11.3687 21.4753 12.0251C22.1317 12.6815 22.5004 13.5717 22.5004 14.4999C22.5004 15.4282 22.1317 16.3184 21.4753 16.9748C20.8189 17.6312 19.9287 17.9999 19.0004 17.9999H18.0004" stroke="black" stroke-width="2" stroke-linecap="round" stroke-linejoin="round"/>
<path d="M9 15L12 12L15 15" stroke="black" stroke-width="2" stroke-linecap="round" stroke-linejoin="round"/>
<path d="M12 12V21" stroke="black" stroke-width="2" stroke-linecap="round" stroke-linejoin="round"/>
</svg>
