<svg width="58" height="28" viewBox="0 0 58 28" fill="none" xmlns="http://www.w3.org/2000/svg">
<path d="M49.4568 25.0599C49.2328 25.0599 49.0448 24.9879 48.8928 24.8439C48.7488 24.6919 48.6768 24.5119 48.6768 24.3039C48.6768 24.0879 48.7488 23.9079 48.8928 23.7639C49.0448 23.6119 49.2328 23.5359 49.4568 23.5359C49.6888 23.5359 49.8768 23.6119 50.0208 23.7639C50.1648 23.9079 50.2368 24.0879 50.2368 24.3039C50.2368 24.5119 50.1648 24.6919 50.0208 24.8439C49.8768 24.9879 49.6888 25.0599 49.4568 25.0599Z" fill="#6B7280"/>
<path d="M46.82 25.0599C46.596 25.0599 46.408 24.9879 46.256 24.8439C46.112 24.6919 46.04 24.5119 46.04 24.3039C46.04 24.0879 46.112 23.9079 46.256 23.7639C46.408 23.6119 46.596 23.5359 46.82 23.5359C47.052 23.5359 47.24 23.6119 47.384 23.7639C47.528 23.9079 47.6 24.0879 47.6 24.3039C47.6 24.5119 47.528 24.6919 47.384 24.8439C47.24 24.9879 47.052 25.0599 46.82 25.0599Z" fill="#6B7280"/>
<path d="M44.1833 25.0599C43.9593 25.0599 43.7713 24.9879 43.6193 24.8439C43.4753 24.6919 43.4033 24.5119 43.4033 24.3039C43.4033 24.0879 43.4753 23.9079 43.6193 23.7639C43.7713 23.6119 43.9593 23.5359 44.1833 23.5359C44.4153 23.5359 44.6033 23.6119 44.7473 23.7639C44.8913 23.9079 44.9633 24.0879 44.9633 24.3039C44.9633 24.5119 44.8913 24.6919 44.7473 24.8439C44.6033 24.9879 44.4153 25.0599 44.1833 25.0599Z" fill="#6B7280"/>
<path d="M38.4229 27.64L39.8629 24.328H39.5149L37.1389 18.844H38.4349L40.3189 23.332L42.2269 18.844H43.4749L39.6709 27.64H38.4229Z" fill="#6B7280"/>
<path d="M32.7493 25.1441C32.1893 25.1441 31.6893 25.0041 31.2493 24.7241C30.8173 24.4441 30.4813 24.0641 30.2413 23.5841C30.0013 23.0961 29.8813 22.5441 29.8813 21.9281C29.8813 21.3041 30.0013 20.7521 30.2413 20.2721C30.4893 19.7841 30.8293 19.4001 31.2613 19.1201C31.7013 18.8401 32.2093 18.7001 32.7853 18.7001C33.2573 18.7001 33.6693 18.7961 34.0213 18.9881C34.3733 19.1721 34.6493 19.4321 34.8493 19.7681V16.3601H36.0493V25.0001H34.9813L34.8613 24.0521C34.7333 24.2441 34.5733 24.4241 34.3813 24.5921C34.1973 24.7521 33.9693 24.8841 33.6973 24.9881C33.4253 25.0921 33.1093 25.1441 32.7493 25.1441ZM32.9653 24.1001C33.3413 24.1001 33.6693 24.0121 33.9493 23.8361C34.2373 23.6521 34.4573 23.4001 34.6093 23.0801C34.7613 22.7521 34.8373 22.3681 34.8373 21.9281C34.8373 21.4881 34.7613 21.1041 34.6093 20.7761C34.4573 20.4481 34.2373 20.1961 33.9493 20.0201C33.6693 19.8361 33.3413 19.7441 32.9653 19.7441C32.6053 19.7441 32.2853 19.8361 32.0053 20.0201C31.7253 20.1961 31.5053 20.4481 31.3453 20.7761C31.1853 21.1041 31.1053 21.4881 31.1053 21.9281C31.1053 22.3601 31.1853 22.7401 31.3453 23.0681C31.5053 23.3961 31.7253 23.6521 32.0053 23.8361C32.2853 24.0121 32.6053 24.1001 32.9653 24.1001Z" fill="#6B7280"/>
<path d="M25.1556 25.1441C24.5956 25.1441 24.0956 25.0041 23.6556 24.7241C23.2236 24.4441 22.8876 24.0641 22.6476 23.5841C22.4076 23.0961 22.2876 22.5441 22.2876 21.9281C22.2876 21.3041 22.4076 20.7521 22.6476 20.2721C22.8956 19.7841 23.2356 19.4001 23.6676 19.1201C24.1076 18.8401 24.6156 18.7001 25.1916 18.7001C25.6636 18.7001 26.0756 18.7961 26.4276 18.9881C26.7796 19.1721 27.0556 19.4321 27.2556 19.7681V16.3601H28.4556V25.0001H27.3876L27.2676 24.0521C27.1396 24.2441 26.9796 24.4241 26.7876 24.5921C26.6036 24.7521 26.3756 24.8841 26.1036 24.9881C25.8316 25.0921 25.5156 25.1441 25.1556 25.1441ZM25.3716 24.1001C25.7476 24.1001 26.0756 24.0121 26.3556 23.8361C26.6436 23.6521 26.8636 23.4001 27.0156 23.0801C27.1676 22.7521 27.2436 22.3681 27.2436 21.9281C27.2436 21.4881 27.1676 21.1041 27.0156 20.7761C26.8636 20.4481 26.6436 20.1961 26.3556 20.0201C26.0756 19.8361 25.7476 19.7441 25.3716 19.7441C25.0116 19.7441 24.6916 19.8361 24.4116 20.0201C24.1316 20.1961 23.9116 20.4481 23.7516 20.7761C23.5916 21.1041 23.5116 21.4881 23.5116 21.9281C23.5116 22.3601 23.5916 22.7401 23.7516 23.0681C23.9116 23.3961 24.1316 23.6521 24.4116 23.8361C24.6916 24.0121 25.0116 24.1001 25.3716 24.1001Z" fill="#6B7280"/>
<path d="M17.6932 25.144C17.2212 25.144 16.8132 25.052 16.4692 24.868C16.1252 24.684 15.8572 24.404 15.6652 24.028C15.4812 23.644 15.3892 23.168 15.3892 22.6V18.844H16.5892V22.468C16.5892 23.02 16.7132 23.436 16.9612 23.716C17.2092 23.988 17.5612 24.124 18.0172 24.124C18.3292 24.124 18.6052 24.052 18.8452 23.908C19.0932 23.764 19.2892 23.556 19.4332 23.284C19.5852 23.004 19.6612 22.66 19.6612 22.252V18.844H20.8612V25H19.7812L19.7092 23.992C19.5252 24.352 19.2572 24.636 18.9052 24.844C18.5612 25.044 18.1572 25.144 17.6932 25.144Z" fill="#6B7280"/>
<path d="M8.1145 25.0001V16.6001H11.2225C11.8145 16.6001 12.3065 16.6961 12.6985 16.8881C13.0905 17.0721 13.3825 17.3281 13.5745 17.6561C13.7745 17.9761 13.8745 18.3401 13.8745 18.7481C13.8745 19.1721 13.7785 19.5281 13.5865 19.8161C13.4025 20.1041 13.1585 20.3281 12.8545 20.4881C12.5585 20.6401 12.2385 20.7281 11.8945 20.7521L12.0745 20.6321C12.4425 20.6401 12.7745 20.7401 13.0705 20.9321C13.3745 21.1161 13.6145 21.3641 13.7905 21.6761C13.9745 21.9881 14.0665 22.3321 14.0665 22.7081C14.0665 23.1401 13.9585 23.5321 13.7425 23.8841C13.5345 24.2281 13.2265 24.5001 12.8185 24.7001C12.4185 24.9001 11.9225 25.0001 11.3305 25.0001H8.1145ZM9.3145 24.0041H11.1745C11.7025 24.0041 12.1105 23.8841 12.3985 23.6441C12.6945 23.3961 12.8425 23.0481 12.8425 22.6001C12.8425 22.1601 12.6905 21.8081 12.3865 21.5441C12.0905 21.2801 11.6785 21.1481 11.1505 21.1481H9.3145V24.0041ZM9.3145 20.2241H11.0905C11.5945 20.2241 11.9785 20.1081 12.2425 19.8761C12.5065 19.6361 12.6385 19.3081 12.6385 18.8921C12.6385 18.4921 12.5065 18.1761 12.2425 17.9441C11.9785 17.7041 11.5865 17.5841 11.0665 17.5841H9.3145V20.2241Z" fill="#6B7280"/>
<path d="M52.3214 13.64L53.7614 10.328H53.4134L51.0374 4.84399H52.3334L54.2174 9.33199L56.1254 4.84399H57.3734L53.5694 13.64H52.3214Z" fill="#6B7280"/>
<path d="M46.6478 11.1441C46.0878 11.1441 45.5878 11.0041 45.1478 10.7241C44.7158 10.4441 44.3798 10.0641 44.1398 9.58411C43.8998 9.09611 43.7798 8.54411 43.7798 7.92811C43.7798 7.30411 43.8998 6.75211 44.1398 6.27211C44.3878 5.78411 44.7278 5.40011 45.1598 5.12011C45.5998 4.84011 46.1078 4.70011 46.6838 4.70011C47.1558 4.70011 47.5678 4.79611 47.9198 4.98811C48.2718 5.17211 48.5478 5.43211 48.7478 5.76811V2.36011H49.9478V11.0001H48.8798L48.7598 10.0521C48.6318 10.2441 48.4718 10.4241 48.2798 10.5921C48.0958 10.7521 47.8678 10.8841 47.5958 10.9881C47.3238 11.0921 47.0078 11.1441 46.6478 11.1441ZM46.8638 10.1001C47.2398 10.1001 47.5678 10.0121 47.8478 9.83611C48.1358 9.65211 48.3558 9.40011 48.5078 9.08011C48.6598 8.75211 48.7358 8.36811 48.7358 7.92811C48.7358 7.48811 48.6598 7.10411 48.5078 6.77611C48.3558 6.44811 48.1358 6.19611 47.8478 6.02011C47.5678 5.83611 47.2398 5.74411 46.8638 5.74411C46.5038 5.74411 46.1838 5.83611 45.9038 6.02011C45.6238 6.19611 45.4038 6.44811 45.2438 6.77611C45.0838 7.10411 45.0038 7.48811 45.0038 7.92811C45.0038 8.36011 45.0838 8.74011 45.2438 9.06811C45.4038 9.39611 45.6238 9.65211 45.9038 9.83611C46.1838 10.0121 46.5038 10.1001 46.8638 10.1001Z" fill="#6B7280"/>
<path d="M39.1853 11.144C38.7133 11.144 38.3053 11.052 37.9613 10.868C37.6173 10.684 37.3493 10.404 37.1573 10.028C36.9733 9.64399 36.8813 9.16799 36.8813 8.59999V4.84399H38.0813V8.46799C38.0813 9.01999 38.2053 9.43599 38.4533 9.71599C38.7013 9.98799 39.0533 10.124 39.5093 10.124C39.8213 10.124 40.0973 10.052 40.3373 9.90799C40.5853 9.76399 40.7813 9.55599 40.9253 9.28399C41.0773 9.00399 41.1533 8.65999 41.1533 8.25199V4.84399H42.3533V11H41.2733L41.2013 9.99199C41.0173 10.352 40.7493 10.636 40.3973 10.844C40.0533 11.044 39.6493 11.144 39.1853 11.144Z" fill="#6B7280"/>
<path d="M34.5276 10.9999C34.1436 10.9999 33.8116 10.9399 33.5316 10.8199C33.2516 10.6999 33.0356 10.4999 32.8836 10.2199C32.7316 9.93994 32.6556 9.55994 32.6556 9.07994V5.86393H31.5996V4.84394H32.6556L32.8116 3.28394H33.8556V4.84394H35.5836V5.86393H33.8556V9.09194C33.8556 9.43594 33.9276 9.67194 34.0716 9.79994C34.2156 9.91994 34.4636 9.97994 34.8156 9.97994H35.5476V10.9999H34.5276Z" fill="#6B7280"/>
<path d="M27.7376 11.1441C27.1296 11.1441 26.5936 11.0361 26.1296 10.8201C25.6656 10.5961 25.3056 10.2841 25.0496 9.88405C24.7936 9.48405 24.6616 9.01605 24.6536 8.48005H25.9256C25.9256 8.78405 25.9936 9.06405 26.1296 9.32005C26.2736 9.56805 26.4776 9.76805 26.7416 9.92005C27.0136 10.0641 27.3456 10.1361 27.7376 10.1361C28.0736 10.1361 28.3616 10.0801 28.6016 9.96806C28.8496 9.85606 29.0376 9.70405 29.1656 9.51205C29.2936 9.31205 29.3576 9.08405 29.3576 8.82805C29.3576 8.54005 29.2936 8.30405 29.1656 8.12005C29.0376 7.92805 28.8576 7.76805 28.6256 7.64005C28.4016 7.51205 28.1416 7.40005 27.8456 7.30405C27.5576 7.20805 27.2456 7.10405 26.9096 6.99205C26.2296 6.76805 25.7256 6.48405 25.3976 6.14005C25.0776 5.79605 24.9176 5.34805 24.9176 4.79605C24.9176 4.32405 25.0256 3.91605 25.2416 3.57205C25.4656 3.22005 25.7816 2.94805 26.1896 2.75605C26.5976 2.55605 27.0736 2.45605 27.6176 2.45605C28.1696 2.45605 28.6456 2.55605 29.0456 2.75605C29.4536 2.95605 29.7736 3.23205 30.0056 3.58405C30.2376 3.93605 30.3576 4.34805 30.3656 4.82005H29.0936C29.0936 4.60405 29.0336 4.39205 28.9136 4.18405C28.8016 3.97605 28.6336 3.80805 28.4096 3.68005C28.1936 3.54405 27.9216 3.47605 27.5936 3.47605C27.3136 3.46805 27.0656 3.51205 26.8496 3.60805C26.6336 3.70405 26.4656 3.84405 26.3456 4.02805C26.2256 4.21205 26.1656 4.43205 26.1656 4.68805C26.1656 4.94405 26.2216 5.15205 26.3336 5.31205C26.4456 5.46405 26.6016 5.59605 26.8016 5.70805C27.0096 5.82005 27.2536 5.92405 27.5336 6.02005C27.8136 6.10805 28.1216 6.20805 28.4576 6.32005C28.8656 6.45605 29.2336 6.62405 29.5616 6.82405C29.8896 7.01605 30.1456 7.26805 30.3296 7.58005C30.5216 7.88405 30.6176 8.27605 30.6176 8.75605C30.6176 9.17205 30.5096 9.56005 30.2936 9.92005C30.0776 10.2801 29.7576 10.5761 29.3336 10.8081C28.9096 11.0321 28.3776 11.1441 27.7376 11.1441Z" fill="#6B7280"/>
<path d="M19.2879 11.0001L16.5038 7.65211L19.0598 4.84411H20.5118L17.4759 8.10811L17.4878 7.22011L20.7998 11.0001H19.2879ZM15.4958 11.0001V2.36011H16.6958V11.0001H15.4958Z" fill="#6B7280"/>
<path d="M11.6718 11.144C11.1278 11.144 10.6638 11.06 10.2798 10.892C9.89581 10.716 9.59581 10.476 9.37981 10.172C9.17181 9.85995 9.04781 9.50395 9.00781 9.10395H10.2198C10.2598 9.29595 10.3358 9.47195 10.4478 9.63195C10.5598 9.79195 10.7158 9.92395 10.9158 10.028C11.1238 10.124 11.3758 10.172 11.6718 10.172C11.9278 10.172 12.1438 10.136 12.3198 10.064C12.4958 9.98395 12.6238 9.87595 12.7038 9.73995C12.7918 9.60395 12.8358 9.45595 12.8358 9.29595C12.8358 9.06395 12.7798 8.88795 12.6678 8.76795C12.5638 8.63995 12.4038 8.54395 12.1878 8.47995C11.9798 8.40795 11.7238 8.34795 11.4198 8.29995C11.1158 8.24395 10.8278 8.17595 10.5558 8.09595C10.2918 8.00795 10.0598 7.89595 9.85981 7.75995C9.65981 7.62395 9.50381 7.45595 9.39181 7.25595C9.27981 7.04795 9.22381 6.79995 9.22381 6.51195C9.22381 6.15995 9.31581 5.84795 9.49981 5.57595C9.68381 5.30395 9.94781 5.09195 10.2918 4.93995C10.6358 4.77995 11.0478 4.69995 11.5278 4.69995C12.2078 4.69995 12.7518 4.85995 13.1598 5.17995C13.5678 5.49995 13.8078 5.94795 13.8798 6.52395H12.7158C12.6758 6.25995 12.5518 6.05595 12.3438 5.91195C12.1358 5.75995 11.8598 5.68395 11.5158 5.68395C11.1558 5.68395 10.8798 5.75195 10.6878 5.88795C10.5038 6.02395 10.4118 6.20395 10.4118 6.42795C10.4118 6.57995 10.4598 6.71995 10.5558 6.84795C10.6518 6.96795 10.8038 7.06795 11.0118 7.14795C11.2198 7.22795 11.4838 7.29595 11.8038 7.35195C12.2598 7.43195 12.6558 7.53195 12.9918 7.65195C13.3278 7.77195 13.5878 7.95195 13.7718 8.19195C13.9638 8.43195 14.0598 8.77195 14.0598 9.21195C14.0598 9.60395 13.9598 9.94795 13.7598 10.244C13.5678 10.532 13.2918 10.756 12.9318 10.916C12.5798 11.068 12.1598 11.144 11.6718 11.144Z" fill="#6B7280"/>
<path d="M0.695312 11.0001L3.79131 2.6001H5.09931L8.17131 11.0001H6.89931L4.42731 4.0401L1.95531 11.0001H0.695312ZM2.09931 8.9241L2.42331 7.9641H6.38331L6.70731 8.9241H2.09931Z" fill="#6B7280"/>
</svg>
