<svg width="16" height="16" viewBox="0 0 16 16" fill="none" xmlns="http://www.w3.org/2000/svg">
<path d="M6 12H10" stroke="#4F46E5" stroke-width="1.25" stroke-linecap="round" stroke-linejoin="round"/>
<path d="M6.66675 14.6667H9.33341" stroke="#4F46E5" stroke-width="1.25" stroke-linecap="round" stroke-linejoin="round"/>
<path d="M10.06 9.33325C10.18 8.67992 10.4933 8.17325 11 7.66659C11.3219 7.37025 11.5774 7.00913 11.7498 6.60697C11.9221 6.20481 12.0074 5.77073 12 5.33325C12 4.27239 11.5786 3.25497 10.8284 2.50482C10.0783 1.75468 9.06087 1.33325 8 1.33325C6.93913 1.33325 5.92172 1.75468 5.17157 2.50482C4.42143 3.25497 4 4.27239 4 5.33325C4 5.99992 4.15333 6.81992 5 7.66659C5.4827 8.10796 5.812 8.69182 5.94 9.33325" stroke="#4F46E5" stroke-width="1.25" stroke-linecap="round" stroke-linejoin="round"/>
</svg>
