<svg width="20" height="20" viewBox="0 0 20 20" fill="none" xmlns="http://www.w3.org/2000/svg">
<path fill-rule="evenodd" clip-rule="evenodd" d="M4.83325 10C4.83325 10.8284 4.16168 11.5 3.33325 11.5C2.50483 11.5 1.83325 10.8284 1.83325 10C1.83325 9.17157 2.50483 8.5 3.33325 8.5C4.16168 8.5 4.83325 9.17157 4.83325 10ZM11.4999 10C11.4999 10.8284 10.8283 11.5 9.99992 11.5C9.17149 11.5 8.49992 10.8284 8.49992 10C8.49992 9.17157 9.17149 8.5 9.99992 8.5C10.8283 8.5 11.4999 9.17157 11.4999 10ZM16.6666 11.5C17.495 11.5 18.1666 10.8284 18.1666 10C18.1666 9.17157 17.495 8.5 16.6666 8.5C15.8382 8.5 15.1666 9.17157 15.1666 10C15.1666 10.8284 15.8382 11.5 16.6666 11.5Z" fill="#64748B"/>
</svg>
