<svg width="96" height="22" viewBox="0 0 96 22" fill="none" xmlns="http://www.w3.org/2000/svg">
<path fill-rule="evenodd" clip-rule="evenodd" d="M27.615 6.53302C27.615 5.89998 27.1375 5.3868 26.5484 5.3868H25.4817C24.8926 5.3868 24.415 5.89998 24.415 6.53302V16.467C24.415 17.1 24.8926 17.6132 25.4817 17.6132H26.5484C27.1375 17.6132 27.615 17.1 27.615 16.467V6.53302ZM20.1809 7.83208H21.2476C21.8367 7.83208 22.3143 8.35758 22.3143 9.00581V16.4395C22.3143 17.0877 21.8367 17.6132 21.2476 17.6132H20.1809C19.5918 17.6132 19.1143 17.0877 19.1143 16.4395V9.00581C19.1143 8.35758 19.5918 7.83208 20.1809 7.83208ZM15.8492 10.4811H14.7825C14.1934 10.4811 13.7158 11.0133 13.7158 11.6698V16.4245C13.7158 17.081 14.1934 17.6132 14.7825 17.6132H15.8492C16.4383 17.6132 16.9158 17.081 16.9158 16.4245V11.6698C16.9158 11.0133 16.4383 10.4811 15.8492 10.4811ZM10.5484 12.9264H9.48171C8.8926 12.9264 8.41504 13.451 8.41504 14.0981V16.4415C8.41504 17.0886 8.8926 17.6132 9.48171 17.6132H10.5484C11.1375 17.6132 11.615 17.0886 11.615 16.4415V14.0981C11.615 13.451 11.1375 12.9264 10.5484 12.9264Z" fill="#1F2330"/>
<path fill-rule="evenodd" clip-rule="evenodd" d="M43.1865 7.80213C45.6736 7.80223 48.0657 8.72432 49.8682 10.3778C50.0039 10.5054 50.2209 10.5038 50.3545 10.3742L51.652 9.11072C51.7197 9.04496 51.7575 8.95588 51.7569 8.8632C51.7563 8.77052 51.7175 8.68187 51.649 8.61688C46.918 4.24217 39.4543 4.24217 34.7233 8.61688C34.6548 8.68183 34.6159 8.77044 34.6152 8.86313C34.6146 8.95581 34.6523 9.04491 34.7199 9.11072L36.0178 10.3742C36.1514 10.504 36.3685 10.5056 36.5042 10.3778C38.3069 8.72421 40.6992 7.80212 43.1865 7.80213ZM43.1832 12.0224C44.5405 12.0223 45.8494 12.5341 46.8555 13.4582C46.9916 13.5893 47.2059 13.5865 47.3386 13.4518L48.6259 12.1325C48.6937 12.0633 48.7313 11.9694 48.7303 11.8718C48.7293 11.7743 48.6898 11.6812 48.6207 11.6134C45.5568 8.72257 40.8121 8.72257 37.7483 11.6134C37.6791 11.6812 37.6396 11.7743 37.6387 11.8719C37.6378 11.9695 37.6755 12.0634 37.7435 12.1325L39.0304 13.4518C39.163 13.5865 39.3774 13.5893 39.5135 13.4582C40.5189 12.5347 41.8268 12.023 43.1832 12.0224ZM45.7076 14.816C45.7095 14.9213 45.6725 15.0229 45.6052 15.0967L43.4285 17.5514C43.3647 17.6236 43.2777 17.6642 43.1869 17.6642C43.0962 17.6642 43.0092 17.6236 42.9454 17.5514L40.7683 15.0967C40.7011 15.0228 40.6641 14.9212 40.6661 14.8159C40.6681 14.7105 40.7089 14.6108 40.7789 14.5401C42.169 13.2262 44.2049 13.2262 45.595 14.5401C45.6649 14.6108 45.7057 14.7106 45.7076 14.816Z" fill="#1F2330"/>
<rect opacity="0.35" x="59.2568" y="5.5" width="24" height="12" rx="3.8" stroke="#1F2330"/>
<path opacity="0.4" d="M84.7568 9.5V13.5755C85.5616 13.2303 86.0849 12.4273 86.0849 11.5377C86.0849 10.6481 85.5616 9.84517 84.7568 9.5Z" fill="#1F2330"/>
<rect x="60.7568" y="7" width="21" height="9" rx="2.5" fill="#1F2330"/>
</svg>
