<svg width="130" height="24" viewBox="0 0 130 24" fill="none" xmlns="http://www.w3.org/2000/svg">
<rect x="2.31494" y="5.42188" width="10.8885" height="14.155" rx="0.544423" fill="#84CC16"/>
<path d="M2.31494 5.60827C2.31494 5.39924 2.43463 5.20866 2.62292 5.11788L10.2449 1.44302C10.6063 1.26873 11.0257 1.53212 11.0257 1.93342V23.1067C11.0257 23.4975 10.6261 23.761 10.2668 23.6071L2.64491 20.3405C2.44473 20.2547 2.31494 20.0579 2.31494 19.8401V5.60827Z" fill="#818CF8"/>
<path d="M18.8913 19.5V5.78053H23.5756C25.1696 5.78053 26.4893 6.06798 27.5346 6.6429C28.5799 7.20474 29.3508 8.00178 29.8473 9.034C30.3569 10.0532 30.6117 11.2553 30.6117 12.6403C30.6117 14.0253 30.3569 15.2339 29.8473 16.2661C29.3508 17.2853 28.5799 18.0823 27.5346 18.6572C26.5024 19.2191 25.1827 19.5 23.5756 19.5H18.8913ZM21.5372 17.2265H23.4384C24.5621 17.2265 25.4506 17.0436 26.1039 16.6777C26.7572 16.3119 27.221 15.7892 27.4954 15.1098C27.7698 14.4173 27.907 13.5941 27.907 12.6403C27.907 11.6734 27.7698 10.8502 27.4954 10.1708C27.221 9.47825 26.7572 8.94907 26.1039 8.58322C25.4506 8.21737 24.5621 8.03444 23.4384 8.03444H21.5372V17.2265ZM39.2145 19.7352C37.8687 19.7352 36.6797 19.4347 35.6475 18.8336C34.6283 18.2326 33.8247 17.4029 33.2368 16.3445C32.6619 15.2731 32.3744 14.0383 32.3744 12.6403C32.3744 11.2422 32.6619 10.014 33.2368 8.95561C33.8247 7.88418 34.6283 7.04795 35.6475 6.4469C36.6797 5.84586 37.8687 5.54534 39.2145 5.54534C40.5734 5.54534 41.769 5.84586 42.8012 6.4469C43.8334 7.04795 44.6305 7.88418 45.1923 8.95561C45.7672 10.014 46.0547 11.2422 46.0547 12.6403C46.0547 14.0383 45.7672 15.2731 45.1923 16.3445C44.6305 17.4029 43.8334 18.2326 42.8012 18.8336C41.769 19.4347 40.5734 19.7352 39.2145 19.7352ZM39.2145 17.3637C40.0638 17.3637 40.7955 17.1742 41.4096 16.7953C42.0368 16.4033 42.5203 15.8545 42.86 15.149C43.1997 14.4434 43.3696 13.6072 43.3696 12.6403C43.3696 11.6603 43.1997 10.8241 42.86 10.1316C42.5203 9.42599 42.0368 8.88374 41.4096 8.50482C40.7955 8.12591 40.0638 7.93645 39.2145 7.93645C38.3783 7.93645 37.6466 8.12591 37.0194 8.50482C36.4053 8.88374 35.9284 9.42599 35.5887 10.1316C35.249 10.8241 35.0791 11.6603 35.0791 12.6403C35.0791 13.6072 35.249 14.4434 35.5887 15.149C35.9284 15.8545 36.4053 16.4033 37.0194 16.7953C37.6466 17.1742 38.3783 17.3637 39.2145 17.3637ZM54.6604 19.7352C53.3146 19.7352 52.1256 19.4347 51.0934 18.8336C50.0742 18.2326 49.2706 17.4029 48.6827 16.3445C48.1077 15.2731 47.8203 14.0383 47.8203 12.6403C47.8203 11.2422 48.1077 10.014 48.6827 8.95561C49.2706 7.88418 50.0742 7.04795 51.0934 6.4469C52.1256 5.84586 53.3146 5.54534 54.6604 5.54534C56.0193 5.54534 57.2149 5.84586 58.2471 6.4469C59.2793 7.04795 60.0763 7.88418 60.6382 8.95561C61.2131 10.014 61.5006 11.2422 61.5006 12.6403C61.5006 14.0383 61.2131 15.2731 60.6382 16.3445C60.0763 17.4029 59.2793 18.2326 58.2471 18.8336C57.2149 19.4347 56.0193 19.7352 54.6604 19.7352ZM54.6604 17.3637C55.5097 17.3637 56.2414 17.1742 56.8555 16.7953C57.4827 16.4033 57.9662 15.8545 58.3059 15.149C58.6456 14.4434 58.8155 13.6072 58.8155 12.6403C58.8155 11.6603 58.6456 10.8241 58.3059 10.1316C57.9662 9.42599 57.4827 8.88374 56.8555 8.50482C56.2414 8.12591 55.5097 7.93645 54.6604 7.93645C53.8242 7.93645 53.0925 8.12591 52.4653 8.50482C51.8512 8.88374 51.3743 9.42599 51.0346 10.1316C50.6948 10.8241 50.525 11.6603 50.525 12.6403C50.525 13.6072 50.6948 14.4434 51.0346 15.149C51.3743 15.8545 51.8512 16.4033 52.4653 16.7953C53.0925 17.1742 53.8242 17.3637 54.6604 17.3637ZM63.717 19.5V5.78053H68.852C69.9495 5.78053 70.8576 5.96999 71.5763 6.34891C72.2949 6.72783 72.8306 7.23741 73.1834 7.87765C73.5362 8.50482 73.7126 9.20386 73.7126 9.97477C73.7126 10.7065 73.5427 11.3924 73.203 12.0327C72.8633 12.6599 72.3276 13.1694 71.5958 13.5614C70.8772 13.9403 69.9495 14.1298 68.8128 14.1298H66.3629V19.5H63.717ZM70.8315 19.5L68.0092 13.4634H70.8707L73.8498 19.5H70.8315ZM66.3629 12.2091H68.6756C69.4726 12.2091 70.0606 12.0131 70.4395 11.6211C70.8184 11.2291 71.0079 10.713 71.0079 10.0728C71.0079 9.43252 70.8184 8.92947 70.4395 8.56362C70.0736 8.1847 69.4857 7.99524 68.6756 7.99524H66.3629V12.2091Z" fill="#818CF8"/>
<path d="M80.7665 19.7352C79.7734 19.7352 78.8849 19.5653 78.101 19.2256C77.3301 18.8859 76.7159 18.3894 76.2586 17.7361C75.8144 17.0828 75.5857 16.2923 75.5727 15.3646H78.3754C78.3884 15.7696 78.4929 16.1355 78.6889 16.4621C78.8849 16.7888 79.1528 17.0501 79.4925 17.2461C79.8453 17.429 80.2634 17.5205 80.7469 17.5205C81.165 17.5205 81.5243 17.4551 81.8248 17.3245C82.1384 17.1808 82.3801 16.9848 82.55 16.7365C82.7199 16.4882 82.8048 16.1943 82.8048 15.8545C82.8048 15.4626 82.7068 15.1359 82.5108 14.8746C82.3279 14.6002 82.0665 14.3715 81.7268 14.1886C81.3871 14.0057 80.9951 13.8424 80.5509 13.6986C80.1197 13.5418 79.6624 13.385 79.1789 13.2282C78.1075 12.8755 77.2843 12.4051 76.7094 11.8171C76.1476 11.2291 75.8666 10.4517 75.8666 9.48479C75.8666 8.66162 76.0626 7.95605 76.4546 7.36807C76.8597 6.78009 77.415 6.32931 78.1206 6.01572C78.8261 5.70213 79.6297 5.54534 80.5313 5.54534C81.459 5.54534 82.2691 5.70867 82.9616 6.03532C83.6671 6.34891 84.2225 6.80622 84.6275 7.40727C85.0456 8.00831 85.2612 8.71388 85.2743 9.52399H82.452C82.4389 9.22346 82.3475 8.94254 82.1776 8.68122C82.0208 8.40683 81.7987 8.19124 81.5112 8.03444C81.2238 7.86458 80.8841 7.77965 80.4921 7.77965C80.1523 7.76659 79.8388 7.81885 79.5513 7.93645C79.2769 8.05404 79.0548 8.23043 78.8849 8.46563C78.7281 8.68775 78.6497 8.96867 78.6497 9.30839C78.6497 9.63505 78.7281 9.90944 78.8849 10.1316C79.0548 10.3537 79.2834 10.5497 79.5709 10.7195C79.8584 10.8763 80.1981 11.0266 80.5901 11.1703C80.9821 11.301 81.4067 11.4382 81.864 11.5819C82.5435 11.8171 83.1706 12.098 83.7455 12.4247C84.3205 12.7383 84.7778 13.1498 85.1175 13.6594C85.4572 14.169 85.6271 14.8419 85.6271 15.6781C85.6271 16.3968 85.4376 17.0632 85.0587 17.6773C84.6928 18.2914 84.1506 18.7879 83.432 19.1668C82.7133 19.5457 81.8248 19.7352 80.7665 19.7352ZM87.8332 19.5V5.78053H90.4791V17.4421H96.4961V19.5H87.8332ZM97.8414 19.5L102.859 5.78053H105.857L110.855 19.5H108.053L104.329 8.79881L100.605 19.5H97.8414ZM100.056 16.3837L100.762 14.3258H107.739L108.425 16.3837H100.056ZM112.619 19.5V5.78053H115.775L120.008 14.3258L124.203 5.78053H127.358V19.5H124.712V10.2688L121.047 17.5597H118.95L115.265 10.2688V19.5H112.619Z" fill="#82CB15"/>
</svg>
