<svg width="65" height="14" viewBox="0 0 65 14" fill="none" xmlns="http://www.w3.org/2000/svg">
<path d="M60.2988 8.49205L60.2508 6.59605H60.6828C61.0108 6.59605 61.3188 6.57605 61.6068 6.53605C61.9028 6.49605 62.1628 6.42005 62.3868 6.30805C62.6108 6.18805 62.7868 6.02005 62.9148 5.80405C63.0508 5.58005 63.1188 5.29205 63.1188 4.94005C63.1188 4.62805 63.0548 4.36405 62.9268 4.14805C62.7988 3.92405 62.6148 3.75605 62.3748 3.64405C62.1428 3.52405 61.8749 3.46405 61.5709 3.46405C61.2589 3.46405 60.9828 3.52405 60.7428 3.64405C60.5108 3.75605 60.3309 3.92005 60.2029 4.13605C60.0749 4.34405 60.0108 4.59606 60.0108 4.89206H58.8708C58.8708 4.41206 58.9828 3.98805 59.2068 3.62005C59.4308 3.25205 59.7469 2.96805 60.1549 2.76805C60.5628 2.56005 61.0349 2.45605 61.5709 2.45605C62.0989 2.45605 62.5668 2.55605 62.9748 2.75605C63.3828 2.95605 63.7028 3.24005 63.9348 3.60805C64.1668 3.97605 64.2828 4.42005 64.2828 4.94005C64.2828 5.51605 64.1589 5.98805 63.9109 6.35605C63.6629 6.71605 63.3188 6.98405 62.8788 7.16005C62.4468 7.32805 61.9468 7.41205 61.3788 7.41205L61.3548 8.49205H60.2988ZM60.8268 11.0601C60.5948 11.0601 60.4028 10.9881 60.2508 10.8441C60.1068 10.6921 60.0348 10.5121 60.0348 10.3041C60.0348 10.0881 60.1068 9.90805 60.2508 9.76405C60.4028 9.61205 60.5948 9.53606 60.8268 9.53606C61.0588 9.53606 61.2469 9.61205 61.3909 9.76405C61.5349 9.90805 61.6068 10.0881 61.6068 10.3041C61.6068 10.5121 61.5349 10.6921 61.3909 10.8441C61.2469 10.9881 61.0588 11.0601 60.8268 11.0601Z" fill="#6B7280"/>
<path d="M52.0366 13.6401V4.95211H53.1166L53.2366 5.88811C53.3646 5.70411 53.5246 5.53211 53.7166 5.37211C53.9086 5.20411 54.1366 5.06811 54.4006 4.96411C54.6726 4.86011 54.9886 4.80811 55.3486 4.80811C55.9246 4.80811 56.4286 4.94811 56.8606 5.22811C57.3006 5.50811 57.6406 5.88811 57.8806 6.36811C58.1286 6.84011 58.2526 7.38011 58.2526 7.98811C58.2526 8.59611 58.1286 9.14011 57.8806 9.62011C57.6326 10.0921 57.2886 10.4641 56.8486 10.7361C56.4166 11.0081 55.9126 11.1441 55.3366 11.1441C54.8646 11.1441 54.4486 11.0521 54.0886 10.8681C53.7286 10.6761 53.4446 10.4121 53.2366 10.0761V13.6401H52.0366ZM55.1446 10.1001C55.5126 10.1001 55.8366 10.0121 56.1166 9.83611C56.4046 9.66011 56.6286 9.41211 56.7886 9.09211C56.9566 8.77211 57.0406 8.40011 57.0406 7.97611C57.0406 7.55211 56.9566 7.18411 56.7886 6.87211C56.6286 6.55211 56.4046 6.30411 56.1166 6.12811C55.8366 5.94411 55.5126 5.85211 55.1446 5.85211C54.7686 5.85211 54.4366 5.94411 54.1486 6.12811C53.8686 6.30411 53.6486 6.55211 53.4886 6.87211C53.3286 7.18411 53.2486 7.55211 53.2486 7.97611C53.2486 8.40011 53.3286 8.77211 53.4886 9.09211C53.6486 9.41211 53.8686 9.66011 54.1486 9.83611C54.4366 10.0121 54.7686 10.1001 55.1446 10.1001Z" fill="#6B7280"/>
<path d="M49.1772 11.0001V2.36011H50.3772V11.0001H49.1772Z" fill="#6B7280"/>
<path d="M44.9757 11.1441C44.3997 11.1441 43.8877 11.0121 43.4397 10.7481C42.9917 10.4841 42.6397 10.1161 42.3837 9.64411C42.1357 9.17211 42.0117 8.62411 42.0117 8.00011C42.0117 7.36011 42.1357 6.80411 42.3837 6.33211C42.6397 5.85211 42.9917 5.48011 43.4397 5.21611C43.8877 4.94411 44.4077 4.80811 44.9997 4.80811C45.5917 4.80811 46.0997 4.94011 46.5237 5.20411C46.9477 5.46811 47.2757 5.82011 47.5077 6.26011C47.7397 6.69211 47.8557 7.17211 47.8557 7.70011C47.8557 7.78011 47.8517 7.86811 47.8437 7.96411C47.8437 8.05211 47.8397 8.15211 47.8317 8.26411H42.8877V7.41211H46.6557C46.6317 6.90811 46.4637 6.51611 46.1517 6.23611C45.8397 5.94811 45.4517 5.80411 44.9877 5.80411C44.6597 5.80411 44.3597 5.88011 44.0877 6.03211C43.8157 6.17611 43.5957 6.39211 43.4277 6.68011C43.2677 6.96011 43.1877 7.31611 43.1877 7.74811V8.08411C43.1877 8.53211 43.2677 8.91211 43.4277 9.22411C43.5957 9.52811 43.8157 9.76011 44.0877 9.92011C44.3597 10.0721 44.6557 10.1481 44.9757 10.1481C45.3597 10.1481 45.6757 10.0641 45.9237 9.89611C46.1717 9.72811 46.3557 9.50011 46.4757 9.21211H47.6757C47.5717 9.58011 47.3957 9.91211 47.1477 10.2081C46.8997 10.4961 46.5917 10.7241 46.2237 10.8921C45.8637 11.0601 45.4477 11.1441 44.9757 11.1441Z" fill="#6B7280"/>
<path d="M39.3195 11.0001V2.6001H40.5195V11.0001H39.3195ZM33.9795 11.0001V2.6001H35.1795V11.0001H33.9795ZM34.9755 7.2081V6.2241H39.5835V7.2081H34.9755Z" fill="#6B7280"/>
<path d="M25.9199 11.1441C25.3439 11.1441 24.8359 11.0081 24.3959 10.7361C23.9559 10.4561 23.6119 10.0801 23.3639 9.60811C23.1239 9.12811 23.0039 8.58411 23.0039 7.97611C23.0039 7.36011 23.1239 6.81611 23.3639 6.34411C23.6119 5.87211 23.9559 5.50011 24.3959 5.22811C24.8439 4.94811 25.3559 4.80811 25.9319 4.80811C26.4039 4.80811 26.8199 4.90411 27.1799 5.09611C27.5399 5.28011 27.8199 5.54411 28.0199 5.88811V2.36011H29.2199V11.0001H28.1399L28.0199 10.0641C27.8999 10.2481 27.7439 10.4241 27.5519 10.5921C27.3599 10.7521 27.1279 10.8841 26.8559 10.9881C26.5839 11.0921 26.2719 11.1441 25.9199 11.1441ZM26.1119 10.1001C26.4879 10.1001 26.8199 10.0121 27.1079 9.83611C27.3959 9.66011 27.6159 9.41211 27.7679 9.09211C27.9279 8.77211 28.0079 8.40011 28.0079 7.97611C28.0079 7.55211 27.9279 7.18411 27.7679 6.87211C27.6159 6.55211 27.3959 6.30411 27.1079 6.12811C26.8199 5.94411 26.4879 5.85211 26.1119 5.85211C25.7519 5.85211 25.4279 5.94411 25.1399 6.12811C24.8519 6.30411 24.6279 6.55211 24.4679 6.87211C24.3079 7.18411 24.2279 7.55211 24.2279 7.97611C24.2279 8.40011 24.3079 8.77211 24.4679 9.09211C24.6279 9.41211 24.8519 9.66011 25.1399 9.83611C25.4279 10.0121 25.7519 10.1001 26.1119 10.1001Z" fill="#6B7280"/>
<path d="M19.0304 11.1441C18.4544 11.1441 17.9424 11.0121 17.4944 10.7481C17.0464 10.4841 16.6944 10.1161 16.4384 9.64411C16.1904 9.17211 16.0664 8.62411 16.0664 8.00011C16.0664 7.36011 16.1904 6.80411 16.4384 6.33211C16.6944 5.85211 17.0464 5.48011 17.4944 5.21611C17.9424 4.94411 18.4624 4.80811 19.0544 4.80811C19.6464 4.80811 20.1544 4.94011 20.5784 5.20411C21.0024 5.46811 21.3304 5.82011 21.5624 6.26011C21.7944 6.69211 21.9104 7.17211 21.9104 7.70011C21.9104 7.78011 21.9064 7.86811 21.8984 7.96411C21.8984 8.05211 21.8944 8.15211 21.8864 8.26411H16.9424V7.41211H20.7104C20.6864 6.90811 20.5184 6.51611 20.2064 6.23611C19.8944 5.94811 19.5064 5.80411 19.0424 5.80411C18.7144 5.80411 18.4144 5.88011 18.1424 6.03211C17.8704 6.17611 17.6504 6.39211 17.4824 6.68011C17.3224 6.96011 17.2424 7.31611 17.2424 7.74811V8.08411C17.2424 8.53211 17.3224 8.91211 17.4824 9.22411C17.6504 9.52811 17.8704 9.76011 18.1424 9.92011C18.4144 10.0721 18.7104 10.1481 19.0304 10.1481C19.4144 10.1481 19.7304 10.0641 19.9784 9.89611C20.2264 9.72811 20.4104 9.50011 20.5304 9.21211H21.7304C21.6264 9.58011 21.4504 9.91211 21.2024 10.2081C20.9544 10.4961 20.6464 10.7241 20.2784 10.8921C19.9184 11.0601 19.5024 11.1441 19.0304 11.1441Z" fill="#6B7280"/>
<path d="M12.0929 11.1441C11.5169 11.1441 11.0049 11.0121 10.5569 10.7481C10.1089 10.4841 9.75691 10.1161 9.50091 9.64411C9.25291 9.17211 9.12891 8.62411 9.12891 8.00011C9.12891 7.36011 9.25291 6.80411 9.50091 6.33211C9.75691 5.85211 10.1089 5.48011 10.5569 5.21611C11.0049 4.94411 11.5249 4.80811 12.1169 4.80811C12.7089 4.80811 13.2169 4.94011 13.6409 5.20411C14.0649 5.46811 14.3929 5.82011 14.6249 6.26011C14.8569 6.69211 14.9729 7.17211 14.9729 7.70011C14.9729 7.78011 14.9689 7.86811 14.9609 7.96411C14.9609 8.05211 14.9569 8.15211 14.9489 8.26411H10.0049V7.41211H13.7729C13.7489 6.90811 13.5809 6.51611 13.2689 6.23611C12.9569 5.94811 12.5689 5.80411 12.1049 5.80411C11.7769 5.80411 11.4769 5.88011 11.2049 6.03211C10.9329 6.17611 10.7129 6.39211 10.5449 6.68011C10.3849 6.96011 10.3049 7.31611 10.3049 7.74811V8.08411C10.3049 8.53211 10.3849 8.91211 10.5449 9.22411C10.7129 9.52811 10.9329 9.76011 11.2049 9.92011C11.4769 10.0721 11.7729 10.1481 12.0929 10.1481C12.4769 10.1481 12.7929 10.0641 13.0409 9.89611C13.2889 9.72811 13.4729 9.50011 13.5929 9.21211H14.7929C14.6889 9.58011 14.5129 9.91211 14.2649 10.2081C14.0169 10.4961 13.7089 10.7241 13.3409 10.8921C12.9809 11.0601 12.5649 11.1441 12.0929 11.1441Z" fill="#6B7280"/>
<path d="M0.956055 11.0001V2.6001H2.15605L6.44006 9.0441V2.6001H7.64006V11.0001H6.44006L2.15605 4.5681V11.0001H0.956055Z" fill="#6B7280"/>
</svg>
