<svg width="36" height="36" viewBox="0 0 36 36" fill="none" xmlns="http://www.w3.org/2000/svg">
<path d="M8.7 16.9502L3 33.0002L19.05 27.3152" stroke="#A855F7" stroke-width="2.5" stroke-linecap="round" stroke-linejoin="round"/>
<path d="M6 4.5H6.015" stroke="#A855F7" stroke-width="3.5" stroke-linecap="round" stroke-linejoin="round"/>
<path d="M33 12H33.015" stroke="#A855F7" stroke-width="2.5" stroke-linecap="round" stroke-linejoin="round"/>
<path d="M22.5 3H22.515" stroke="#A855F7" stroke-width="3.5" stroke-linecap="round" stroke-linejoin="round"/>
<path d="M33 30H33.015" stroke="#A855F7" stroke-width="2.5" stroke-linecap="round" stroke-linejoin="round"/>
<path d="M33 3L29.64 4.125C28.6836 4.44358 27.8675 5.08446 27.3312 5.93809C26.795 6.79171 26.5719 7.80509 26.7 8.805C26.85 10.095 25.845 11.25 24.525 11.25H23.955C22.665 11.25 21.555 12.15 21.315 13.41L21 15" stroke="#A855F7" stroke-width="2.5" stroke-linecap="round" stroke-linejoin="round"/>
<path d="M33 19.5004L31.77 19.0054C30.48 18.4954 29.04 19.3054 28.8 20.6704C28.635 21.7204 27.72 22.5004 26.655 22.5004H25.5" stroke="#A855F7" stroke-width="2.5" stroke-linecap="round" stroke-linejoin="round"/>
<path d="M16.5 3L16.995 4.23C17.505 5.52 16.695 6.96 15.33 7.2C14.28 7.35 13.5 8.28 13.5 9.345V10.5" stroke="#A855F7" stroke-width="2.5" stroke-linecap="round" stroke-linejoin="round"/>
<path d="M16.5008 19.4998C19.3958 22.3948 20.7458 25.7548 19.5008 26.9998C18.2558 28.2448 14.8958 26.8948 12.0008 23.9998C9.10576 21.1048 7.75576 17.7448 9.00076 16.4998C10.2458 15.2548 13.6058 16.6048 16.5008 19.4998Z" stroke="#A855F7" stroke-width="2.5" stroke-linecap="round" stroke-linejoin="round"/>
</svg>
