<svg width="150" height="254" viewBox="0 0 150 254" fill="none" xmlns="http://www.w3.org/2000/svg">
<path d="M113.2 4C118.174 4 122.146 3.9972 125.348 4.25879C128.596 4.52422 131.404 5.08152 133.987 6.39746C138.127 8.50668 141.493 11.8731 143.603 16.0127C144.918 18.5956 145.476 21.4037 145.741 24.6523C146.003 27.8544 146 31.8256 146 36.7998V217.2C146 222.174 146.003 226.146 145.741 229.348C145.476 232.596 144.918 235.404 143.603 237.987C141.493 242.127 138.127 245.493 133.987 247.603C131.404 248.918 128.596 249.476 125.348 249.741C122.146 250.003 118.174 250 113.2 250H36.7998C31.8256 250 27.8544 250.003 24.6523 249.741C21.4037 249.476 18.5956 248.918 16.0127 247.603C11.8731 245.493 8.50668 242.127 6.39746 237.987C5.08152 235.404 4.52422 232.596 4.25879 229.348C3.9972 226.146 4 222.174 4 217.2V36.7998C4 31.8256 3.9972 27.8544 4.25879 24.6523C4.52422 21.4037 5.08152 18.5956 6.39746 16.0127C8.50668 11.8731 11.8731 8.50668 16.0127 6.39746C18.5956 5.08152 21.4037 4.52422 24.6523 4.25879C27.8544 3.9972 31.8256 4 36.7998 4H113.2Z" fill="#4F46E5" fill-opacity="0.28" stroke="#4F46E5" stroke-width="8"/>
<mask id="mask0_38_3039" style="mask-type:alpha" maskUnits="userSpaceOnUse" x="8" y="8" width="134" height="238">
<path d="M8 36.8C8 26.7191 8 21.6786 9.96188 17.8282C11.6876 14.4413 14.4413 11.6876 17.8282 9.96188C21.6786 8 26.7191 8 36.8 8H113.2C123.281 8 128.321 8 132.172 9.96188C135.559 11.6876 138.312 14.4413 140.038 17.8282C142 21.6786 142 26.7191 142 36.8V217.2C142 227.281 142 232.321 140.038 236.172C138.312 239.559 135.559 242.312 132.172 244.038C128.321 246 123.281 246 113.2 246H36.8C26.7191 246 21.6786 246 17.8282 244.038C14.4413 242.312 11.6876 239.559 9.96188 236.172C8 232.321 8 227.281 8 217.2V36.8Z" fill="#4F46E5"/>
</mask>
<g mask="url(#mask0_38_3039)">
<path d="M165 154L-15 80.6859V-47H165V154Z" fill="white" fill-opacity="0.3"/>
</g>
<path opacity="0.8" d="M19 47.9434V39.9434C19 37.7342 20.7909 35.9434 23 35.9434H31" stroke="#4F46E5" stroke-width="3"/>
<path opacity="0.8" d="M19 106.943V114.943C19 117.152 20.7909 118.943 23 118.943H31" stroke="#4F46E5" stroke-width="3"/>
<path opacity="0.8" d="M131 47.9434V39.9434C131 37.7342 129.209 35.9434 127 35.9434H119" stroke="#4F46E5" stroke-width="3"/>
<path opacity="0.8" d="M131 106.943V114.943C131 117.152 129.209 118.943 127 118.943H119" stroke="#4F46E5" stroke-width="3"/>
<rect x="57" y="15" width="36" height="8" rx="4" fill="#4F46E5"/>
</svg>
