<svg width="40" height="40" viewBox="0 0 40 40" fill="none" xmlns="http://www.w3.org/2000/svg">
<path d="M19.9987 36.6654C29.2034 36.6654 36.6654 29.2034 36.6654 19.9987C36.6654 10.794 29.2034 3.33203 19.9987 3.33203C10.794 3.33203 3.33203 10.794 3.33203 19.9987C3.33203 29.2034 10.794 36.6654 19.9987 36.6654Z" stroke="#84CC16" stroke-width="2.5" stroke-linecap="round" stroke-linejoin="round"/>
<path d="M15.1484 15.0009C15.5403 13.8871 16.3137 12.9478 17.3317 12.3495C18.3497 11.7512 19.5466 11.5325 20.7104 11.7321C21.8742 11.9318 22.9298 12.5368 23.6902 13.4402C24.4507 14.3435 24.8669 15.4868 24.8651 16.6676C24.8651 20.001 19.8651 21.6676 19.8651 21.6676" stroke="#84CC16" stroke-width="2.5" stroke-linecap="round" stroke-linejoin="round"/>
<path d="M20 28.332H20.0169" stroke="#84CC16" stroke-width="2.5" stroke-linecap="round" stroke-linejoin="round"/>
</svg>
