<svg width="24" height="24" viewBox="0 0 24 24" fill="none" xmlns="http://www.w3.org/2000/svg">
<path d="M22 10C22 10.8284 21.3284 11.5 20.5 11.5H13.8999C13.3476 11.5 12.8999 11.0523 12.8999 10.5V8C12.8999 7.44772 13.3476 7 13.8999 7H20C21.1045 7 22 7.89543 22 9V10Z" fill="#4F46E5"/>
<path d="M10.1 7C10.6523 7 11.1 7.44772 11.1 8V10.5C11.1 11.0523 10.6523 11.5 10.1 11.5H3.5C2.67157 11.5 2 10.8284 2 10V9C2 7.89543 2.89543 7 4 7H10.1Z" fill="#4F46E5"/>
<path d="M20.0001 19C20.0001 19.7956 19.6838 20.5585 19.1212 21.1211C18.5586 21.6837 17.7957 22 17.0001 22H13.9C13.3477 22 12.9 21.5523 12.9 21V14.5C12.9 13.9477 13.3477 13.5 13.9 13.5H19.0001C19.2653 13.5 19.5196 13.6054 19.7071 13.793C19.8946 13.9805 20.0001 14.2348 20.0001 14.5V19Z" fill="#4F46E5"/>
<path d="M10.1 13.5C10.6523 13.5 11.1 13.9477 11.1 14.5V21C11.1 21.5523 10.6523 22 10.1 22H7C6.20435 22 5.44152 21.6837 4.87891 21.1211C4.3163 20.5585 4 19.7956 4 19V14.5C4 14.2348 4.10543 13.9805 4.29297 13.793C4.48051 13.6054 4.73478 13.5 5 13.5H10.1Z" fill="#4F46E5"/>
<path d="M7.5 7.99995C6.83696 7.99995 6.20107 7.73656 5.73223 7.26772C5.26339 6.79887 5 6.16299 5 5.49995C5 4.83691 5.26339 4.20102 5.73223 3.73218C6.20107 3.26334 6.83696 2.99995 7.5 2.99995C8.46469 2.98314 9.41002 3.45121 10.2127 4.34311C10.869 5.07231 11.4051 6.05715 11.7765 7.2068C11.8409 7.40634 12.1591 7.40634 12.2235 7.2068C12.5949 6.05715 13.131 5.07231 13.7873 4.34311C14.59 3.45121 15.5353 2.98314 16.5 2.99995C17.163 2.99995 17.7989 3.26334 18.2678 3.73218C18.7366 4.20102 19 4.83691 19 5.49995C19 6.16299 18.7366 6.79887 18.2678 7.26772C17.7989 7.73656 17.163 7.99995 16.5 7.99995" stroke="#4F46E5" stroke-width="2" stroke-linecap="round" stroke-linejoin="round"/>
</svg>
