<svg width="24" height="24" viewBox="0 0 24 24" fill="none" xmlns="http://www.w3.org/2000/svg">
<path d="M2.22458 11.4344C1.97439 9.55795 1.8493 8.61973 2.13884 7.89155C2.39304 7.25223 2.85927 6.71971 3.45939 6.38324C4.14292 6 5.08944 6 6.98248 6H17.0175C18.9106 6 19.8571 6 20.5406 6.38324C21.1407 6.71971 21.607 7.25223 21.8612 7.89155C22.1507 8.61973 22.0256 9.55795 21.7754 11.4344L21.0554 16.8344C20.8586 18.3102 20.7602 19.0482 20.4088 19.6038C20.0991 20.0933 19.6543 20.4828 19.1281 20.7251C18.5309 21 17.7864 21 16.2975 21H7.70248C6.21356 21 5.46911 21 4.87192 20.7251C4.34571 20.4828 3.90091 20.0933 3.59122 19.6038C3.23976 19.0482 3.14137 18.3102 2.94458 16.8344L2.22458 11.4344Z" stroke="#6B7280" stroke-width="2"/>
<path d="M19.4762 6C19.5807 5.40163 19.6329 5.10245 19.6155 4.85786C19.5539 3.9943 18.9438 3.26838 18.1037 3.05924C17.8657 3 17.562 3 16.9546 3H7.04539C6.43796 3 6.13425 3 5.89631 3.05924C5.05621 3.26838 4.44605 3.9943 4.38452 4.85786C4.36709 5.10245 4.41933 5.40163 4.52381 6" stroke="#6B7280" stroke-width="2"/>
<circle cx="10.5" cy="16.5" r="1.5" stroke="#6B7280" stroke-width="2"/>
<path d="M12 16.5V9L15.5 10.5V13L12 11.5" stroke="#6B7280" stroke-width="2" stroke-linecap="round" stroke-linejoin="round"/>
</svg>
