<svg width="24" height="24" viewBox="0 0 24 24" fill="none" xmlns="http://www.w3.org/2000/svg">
<path d="M17.3469 2C17.7234 2.00237 18.0544 2.01657 18.345 2.08887C19.6051 2.40258 20.5202 3.49179 20.6125 4.78711C20.6243 4.95168 20.6128 5.12482 20.593 5.30957C20.7422 5.36503 20.8878 5.43129 21.0295 5.51074C21.8296 5.95938 22.4514 6.67008 22.7903 7.52246C23.0106 8.07673 23.0491 8.65652 23.0198 9.2793C22.9909 9.89221 22.8896 10.6457 22.7668 11.5664L22.0471 16.9668C21.9508 17.6892 21.8717 18.2869 21.7688 18.7715C21.6632 19.2684 21.5184 19.7208 21.2542 20.1387C20.8413 20.7913 20.2476 21.3108 19.5461 21.6338C19.0973 21.8404 18.6305 21.9239 18.1243 21.9629C17.6303 22.0009 17.027 22 16.2981 22H7.70239C6.9735 22 6.37019 22.0009 5.87622 21.9629C5.36996 21.9239 4.90324 21.8403 4.45435 21.6338C3.75284 21.3108 3.15925 20.7913 2.74634 20.1387C2.48202 19.7208 2.33725 19.2684 2.23169 18.7715C2.12879 18.2869 2.04968 17.6892 1.95337 16.9668L1.23364 11.5664C1.11088 10.6457 1.00955 9.89221 0.980713 9.2793C0.951414 8.65649 0.98986 8.07675 1.21021 7.52246C1.54915 6.67006 2.17081 5.95936 2.97095 5.51074C3.11211 5.43163 3.25702 5.36586 3.40552 5.31055C3.38563 5.12549 3.37525 4.95191 3.38696 4.78711C3.47925 3.49187 4.39452 2.40267 5.65454 2.08887C5.94537 2.01646 6.27675 2.00237 6.65356 2H17.3469ZM12.2961 8.31055C12.0645 8.21126 11.7976 8.23533 11.5872 8.37402C11.3768 8.51282 11.2502 8.74799 11.2502 9V14.3809C11.0155 14.2978 10.7635 14.25 10.5002 14.25C9.25761 14.25 8.25025 15.2574 8.25024 16.5C8.25024 17.7426 9.2576 18.75 10.5002 18.75C11.7428 18.7499 12.7502 17.7426 12.7502 16.5V12.6377L15.2043 13.6895C15.436 13.7887 15.7029 13.7647 15.9133 13.626C16.1236 13.4872 16.2502 13.252 16.2502 13V10.5C16.2502 10.2002 16.0716 9.92885 15.7961 9.81055L12.2961 8.31055ZM14.7502 10.9941V11.8623L12.7502 11.0049V10.1377L14.7502 10.9941ZM7.04517 4C6.37486 4 6.22616 4.00738 6.13794 4.0293C5.71806 4.13391 5.41293 4.4971 5.38208 4.92871C5.38046 4.9514 5.38047 4.97767 5.38306 5.01465C5.84893 5.00056 6.38047 5 6.98267 5H17.0178C17.6192 5 18.15 5.00061 18.6155 5.01465C18.618 4.97761 18.619 4.95142 18.6174 4.92871C18.5866 4.49705 18.2815 4.13385 17.8616 4.0293C17.7733 4.00746 17.6238 4 16.9543 4H7.04517Z" fill="#4F46E5"/>
</svg>
