<svg width="16" height="16" viewBox="0 0 16 16" fill="none" xmlns="http://www.w3.org/2000/svg">
<path d="M6 12H10" stroke="#6B7280" stroke-width="1.5" stroke-linecap="round" stroke-linejoin="round"/>
<path d="M6.66675 14.6665H9.33341" stroke="#6B7280" stroke-width="1.5" stroke-linecap="round" stroke-linejoin="round"/>
<path d="M10.06 9.3335C10.18 8.68016 10.4933 8.1735 11 7.66683C11.3219 7.3705 11.5774 7.00938 11.7498 6.60722C11.9221 6.20506 12.0074 5.77097 12 5.3335C12 4.27263 11.5786 3.25521 10.8284 2.50507C10.0783 1.75492 9.06087 1.3335 8 1.3335C6.93913 1.3335 5.92172 1.75492 5.17157 2.50507C4.42143 3.25521 4 4.27263 4 5.3335C4 6.00016 4.15333 6.82016 5 7.66683C5.4827 8.1082 5.812 8.69207 5.94 9.3335" stroke="#6B7280" stroke-width="1.5" stroke-linecap="round" stroke-linejoin="round"/>
</svg>
