<svg width="18" height="18" viewBox="0 0 18 18" fill="none" xmlns="http://www.w3.org/2000/svg">
<rect width="18" height="18" rx="9" fill="black" fill-opacity="0.8"/>
<path d="M5.7073 13V11.6704L8.81383 8.79401C9.07804 8.53832 9.29963 8.30821 9.4786 8.10367C9.66042 7.89912 9.79821 7.69884 9.89196 7.50281C9.98571 7.30395 10.0326 7.08946 10.0326 6.85935C10.0326 6.60367 9.97434 6.3835 9.85787 6.19884C9.74139 6.01134 9.5823 5.86787 9.38059 5.76844C9.17889 5.66617 8.9502 5.61503 8.69451 5.61503C8.42747 5.61503 8.19451 5.66901 7.99565 5.77696C7.79679 5.88492 7.64338 6.03975 7.53542 6.24145C7.42747 6.44315 7.37349 6.68321 7.37349 6.96162H5.62207C5.62207 6.3906 5.75133 5.89486 6.00985 5.4744C6.26838 5.05395 6.63059 4.72867 7.0965 4.49855C7.56241 4.26844 8.09934 4.15338 8.7073 4.15338C9.3323 4.15338 9.87633 4.26418 10.3394 4.48577C10.8053 4.70452 11.1675 5.0085 11.426 5.3977C11.6846 5.7869 11.8138 6.23293 11.8138 6.73577C11.8138 7.06531 11.7485 7.3906 11.6178 7.71162C11.49 8.03264 11.2613 8.38918 10.9317 8.78122C10.6022 9.17043 10.1377 9.63776 9.53826 10.1832L8.26412 11.4318V11.4914H11.9289V13H5.7073Z" fill="white"/>
</svg>
