<svg width="18" height="18" viewBox="0 0 18 18" fill="none" xmlns="http://www.w3.org/2000/svg">
<rect width="18" height="18" rx="9" fill="black" fill-opacity="0.8"/>
<path d="M8.93315 13.1193C8.29679 13.1193 7.73002 13.0099 7.23287 12.7912C6.73855 12.5696 6.34792 12.2656 6.06099 11.8792C5.7769 11.49 5.63059 11.0412 5.62207 10.5326H7.48002C7.49139 10.7457 7.56099 10.9332 7.68883 11.0951C7.81951 11.2542 7.99281 11.3778 8.20872 11.4659C8.42463 11.5539 8.66753 11.598 8.93741 11.598C9.21866 11.598 9.46724 11.5483 9.68315 11.4488C9.89906 11.3494 10.0681 11.2116 10.1903 11.0355C10.3124 10.8593 10.3735 10.6562 10.3735 10.4261C10.3735 10.1932 10.3082 9.98719 10.1775 9.80821C10.0496 9.62639 9.86497 9.48435 9.62349 9.38207C9.38485 9.2798 9.10076 9.22867 8.77122 9.22867H7.9573V7.87355H8.77122C9.04963 7.87355 9.29537 7.82526 9.50843 7.72867C9.72434 7.63207 9.89196 7.49855 10.0113 7.3281C10.1306 7.1548 10.1903 6.9531 10.1903 6.72298C10.1903 6.50423 10.1377 6.31247 10.0326 6.1477C9.93031 5.98009 9.78542 5.8494 9.59792 5.75565C9.41326 5.6619 9.19735 5.61503 8.9502 5.61503C8.7002 5.61503 8.4715 5.66048 8.26412 5.75139C8.05673 5.83946 7.89054 5.96588 7.76554 6.13065C7.64054 6.29543 7.57377 6.48861 7.56525 6.7102H5.79679C5.80531 6.20736 5.94877 5.76418 6.22718 5.38065C6.50559 4.99713 6.88059 4.69742 7.35218 4.48151C7.82662 4.26276 8.36213 4.15338 8.95872 4.15338C9.56099 4.15338 10.088 4.26276 10.5397 4.48151C10.9914 4.70026 11.3422 4.99571 11.5922 5.36787C11.8451 5.73719 11.9701 6.15196 11.9672 6.61219C11.9701 7.10082 11.8181 7.5085 11.5113 7.8352C11.2073 8.1619 10.811 8.36929 10.3224 8.45736V8.52554C10.9644 8.60793 11.453 8.83094 11.7883 9.19457C12.1263 9.55537 12.2939 10.0071 12.2911 10.5497C12.2939 11.0468 12.1505 11.4886 11.8607 11.875C11.5738 12.2613 11.1775 12.5653 10.6718 12.7869C10.1661 13.0085 9.58656 13.1193 8.93315 13.1193Z" fill="white"/>
</svg>
